<svg preserveAspectRatio="none" width="100%" height="100%" overflow="visible" style="display: block;" viewBox="0 0 152 48" fill="none" xmlns="http://www.w3.org/2000/svg">
<g id="Logotext">
<g id="Vector">
<path fill-rule="evenodd" clip-rule="evenodd" d="M44.1525 33.3599C42.7525 33.3599 41.5025 33.0199 40.4025 32.3399C39.3025 31.6599 38.4325 30.7299 37.7925 29.5499C37.1525 28.3699 36.8325 27.0299 36.8325 25.5299C36.8325 24.0299 37.1525 22.6999 37.7925 21.5399C38.4325 20.3599 39.3025 19.4399 40.4025 18.7799C41.5025 18.0999 42.7525 17.7599 44.1525 17.7599C45.2725 17.7599 46.2525 17.9699 47.0925 18.3899C47.9325 18.8099 48.6125 19.3999 49.1325 20.1599V11.3999H52.9725V32.9999H49.5525L49.1325 30.8699C48.6525 31.5299 48.0125 32.1099 47.2125 32.6099C46.4325 33.1099 45.4125 33.3599 44.1525 33.3599ZM44.9625 29.9999C46.2025 29.9999 47.2125 29.5899 47.9925 28.7699C48.7925 27.9299 49.1925 26.8599 49.1925 25.5599C49.1925 24.2599 48.7925 23.1999 47.9925 22.3799C47.2125 21.5399 46.2025 21.1199 44.9625 21.1199C43.7425 21.1199 42.7325 21.5299 41.9325 22.3499C41.1325 23.1699 40.7325 24.2299 40.7325 25.5299C40.7325 26.8299 41.1325 27.8999 41.9325 28.7399C42.7325 29.5799 43.7425 29.9999 44.9625 29.9999Z" fill="var(--fill-0, #0C111D)"/>
<path d="M4.74 32.0099C6.26 32.9099 8.08 33.3599 10.2 33.3599C12.72 33.3599 14.78 32.7499 16.38 31.5299C18 30.3099 19.01 28.6199 19.41 26.4599H15.18C14.92 27.5399 14.36 28.3899 13.5 29.0099C12.66 29.6099 11.54 29.9099 10.14 29.9099C8.2 29.9099 6.68 29.2599 5.58 27.9599C4.48 26.6399 3.93 24.8299 3.93 22.5299C3.93 20.2299 4.48 18.4199 5.58 17.0999C6.68 15.7799 8.2 15.1199 10.14 15.1199C11.54 15.1199 12.66 15.4499 13.5 16.1099C14.36 16.7499 14.92 17.6399 15.18 18.7799H19.41C19.01 16.5199 18 14.7699 16.38 13.5299C14.78 12.2699 12.72 11.6399 10.2 11.6399C8.08 11.6399 6.26 12.0999 4.74 13.0199C3.22 13.9399 2.05 15.2199 1.23 16.8599C0.41 18.4999 0 20.3899 0 22.5299C0 24.6699 0.41 26.5599 1.23 28.1999C2.05 29.8199 3.22 31.0899 4.74 32.0099Z" fill="var(--fill-0, #0C111D)"/>
<path fill-rule="evenodd" clip-rule="evenodd" d="M24.1591 32.3699C25.3191 33.0299 26.6191 33.3599 28.0591 33.3599C29.4791 33.3599 30.7691 33.0299 31.9291 32.3699C33.0891 31.7099 33.9991 30.7999 34.6591 29.6399C35.3391 28.4599 35.6791 27.0999 35.6791 25.5599C35.6791 24.0199 35.3391 22.6699 34.6591 21.5099C33.9991 20.3299 33.0891 19.4099 31.9291 18.7499C30.7891 18.0899 29.5091 17.7599 28.0891 17.7599C26.6491 17.7599 25.3491 18.0899 24.1891 18.7499C23.0491 19.4099 22.1391 20.3299 21.4591 21.5099C20.7791 22.6699 20.4391 24.0199 20.4391 25.5599C20.4391 27.0999 20.7691 28.4599 21.4291 29.6399C22.1091 30.7999 23.0191 31.7099 24.1591 32.3699ZM30.6691 28.9199C29.9291 29.6599 29.0591 30.0299 28.0591 30.0299C27.0591 30.0299 26.1891 29.6599 25.4491 28.9199C24.7291 28.1599 24.3691 27.0399 24.3691 25.5599C24.3691 24.0799 24.7291 22.9699 25.4491 22.2299C26.1891 21.4699 27.0691 21.0899 28.0891 21.0899C29.0691 21.0899 29.9291 21.4699 30.6691 22.2299C31.4091 22.9699 31.7791 24.0799 31.7791 25.5599C31.7791 27.0399 31.4091 28.1599 30.6691 28.9199Z" fill="var(--fill-0, #0C111D)"/>
<path fill-rule="evenodd" clip-rule="evenodd" d="M58.3228 32.3999C59.4828 33.0399 60.8128 33.3599 62.3128 33.3599C63.5128 33.3599 64.5828 33.1399 65.5228 32.6999C66.4828 32.2599 67.2828 31.6599 67.9228 30.8999C68.5828 30.1199 69.0528 29.2599 69.3328 28.3199H65.4328C65.1728 28.8799 64.7728 29.3399 64.2328 29.6999C63.7128 30.0399 63.0628 30.2099 62.2828 30.2099C61.2428 30.2099 60.3528 29.8799 59.6128 29.2199C58.8928 28.5599 58.4928 27.6499 58.4128 26.4899H69.7228C69.7428 26.2299 69.7528 25.9799 69.7528 25.7399C69.7728 25.4999 69.7828 25.2699 69.7828 25.0499C69.7828 23.6899 69.4628 22.4599 68.8228 21.3599C68.2028 20.2399 67.3328 19.3599 66.2128 18.7199C65.0928 18.0799 63.8028 17.7599 62.3428 17.7599C60.7828 17.7599 59.4228 18.0999 58.2628 18.7799C57.1228 19.4399 56.2228 20.3699 55.5628 21.5699C54.9228 22.7699 54.6028 24.1399 54.6028 25.6799C54.6028 27.1999 54.9328 28.5399 55.5928 29.6999C56.2528 30.8599 57.1628 31.7599 58.3228 32.3999ZM59.8528 21.6899C60.5728 21.1499 61.4028 20.8799 62.3428 20.8799C63.3228 20.8799 64.1428 21.1699 64.8028 21.7499C65.4628 22.3299 65.8228 23.1099 65.8828 24.0899H58.4728C58.6728 23.0099 59.1328 22.2099 59.8528 21.6899Z" fill="var(--fill-0, #0C111D)"/>
<path d="M78.5025 33.3599C76.9825 33.3599 75.6425 33.0299 74.4825 32.3699C73.3225 31.7099 72.4025 30.7899 71.7225 29.6099C71.0625 28.4299 70.7325 27.0799 70.7325 25.5599C70.7325 24.0399 71.0625 22.6899 71.7225 21.5099C72.4025 20.3299 73.3225 19.4099 74.4825 18.7499C75.6425 18.0899 76.9825 17.7599 78.5025 17.7599C80.4025 17.7599 82.0025 18.2599 83.3025 19.2599C84.6025 20.2399 85.4325 21.5999 85.7925 23.3399H81.7425C81.5425 22.6199 81.1425 22.0599 80.5425 21.6599C79.9625 21.2399 79.2725 21.0299 78.4725 21.0299C77.4125 21.0299 76.5125 21.4299 75.7725 22.2299C75.0325 23.0299 74.6625 24.1399 74.6625 25.5599C74.6625 26.9799 75.0325 28.0899 75.7725 28.8899C76.5125 29.6899 77.4125 30.0899 78.4725 30.0899C79.2725 30.0899 79.9625 29.8899 80.5425 29.4899C81.1425 29.0899 81.5425 28.5199 81.7425 27.7799H85.7925C85.4325 29.4599 84.6025 30.8099 83.3025 31.8299C82.0025 32.8499 80.4025 33.3599 78.5025 33.3599Z" fill="var(--fill-0, #0C111D)"/>
<path d="M91.1808 20.9099L90.8208 18.1199H87.4008V32.9999H91.2408V26.2199C91.2408 25.0799 91.4208 24.1899 91.7808 23.5499C92.1608 22.9099 92.6808 22.4599 93.3408 22.1999C94.0008 21.9399 94.7508 21.8099 95.5908 21.8099H96.6708V17.7599C95.4108 17.7599 94.3108 18.0499 93.3708 18.6299C92.4508 19.1899 91.7208 19.9499 91.1808 20.9099Z" fill="var(--fill-0, #0C111D)"/>
<path fill-rule="evenodd" clip-rule="evenodd" d="M102.625 33.3599C101.345 33.3599 100.295 33.1599 99.4753 32.7599C98.6553 32.3399 98.0453 31.7899 97.6453 31.1099C97.2453 30.4299 97.0453 29.6799 97.0453 28.8599C97.0453 27.4799 97.5853 26.3599 98.6653 25.4999C99.7453 24.6399 101.365 24.2099 103.525 24.2099H107.305V23.8499C107.305 22.8299 107.015 22.0799 106.435 21.5999C105.855 21.1199 105.135 20.8799 104.275 20.8799C103.495 20.8799 102.815 21.0699 102.235 21.4499C101.655 21.8099 101.295 22.3499 101.155 23.0699H97.4053C97.5053 21.9899 97.8653 21.0499 98.4853 20.2499C99.1253 19.4499 99.9453 18.8399 100.945 18.4199C101.945 17.9799 103.065 17.7599 104.305 17.7599C106.425 17.7599 108.095 18.2899 109.315 19.3499C110.535 20.4099 111.145 21.9099 111.145 23.8499V32.9999H107.875L107.515 30.5999C107.075 31.3999 106.455 32.0599 105.655 32.5799C104.875 33.0999 103.865 33.3599 102.625 33.3599ZM103.495 30.3599C104.595 30.3599 105.445 29.9999 106.045 29.2799C106.665 28.5599 107.055 27.6699 107.215 26.6099H103.945C102.925 26.6099 102.195 26.7999 101.755 27.1799C101.315 27.5399 101.095 27.9899 101.095 28.5299C101.095 29.1099 101.315 29.5599 101.755 29.8799C102.195 30.1999 102.775 30.3599 103.495 30.3599Z" fill="var(--fill-0, #0C111D)"/>
<path d="M115.05 12.5399C114.15 13.2999 113.7 14.5799 113.7 16.3799V18.1199H111.66V21.3299H113.7V32.9999H117.54V21.3299H123.461V27.8099C123.461 29.7499 123.931 31.0999 124.871 31.8599C125.811 32.6199 127.061 32.9999 128.621 32.9999H131.231V29.7299H129.371C128.611 29.7299 128.071 29.5999 127.751 29.3399C127.451 29.0599 127.301 28.5599 127.301 27.8399V21.3299H131.321V18.1199H127.301V14.1299H123.911L123.461 18.1199H117.54V16.3799C117.54 15.7599 117.68 15.3199 117.96 15.0599C118.24 14.7999 118.71 14.6699 119.37 14.6699H120.42V11.3999H118.77C117.21 11.3999 115.97 11.7799 115.05 12.5399Z" fill="var(--fill-0, #0C111D)"/>
<path d="M132.488 34.1399V37.7999H151.678V34.1399H132.488Z" fill="var(--fill-0, #0C111D)"/>
</g>
</g>
</svg>
