<svg preserveAspectRatio="none" width="100%" height="100%" overflow="visible" style="display: block;" viewBox="0 0 159 48" fill="none" xmlns="http://www.w3.org/2000/svg">
<g id="Logotext">
<g id="Vector">
<path d="M33.2604 32.9961C33.5816 32.1182 33.7495 31.1386 33.7495 30.084C33.7495 25.791 30.9685 22.74 26.3785 22.74C21.7615 22.74 18.9805 25.791 18.9805 30.084C18.9805 31.1386 19.1483 32.1182 19.4699 32.9961H24.0182C23.5534 32.3088 23.3005 31.3317 23.3005 30.084C23.3005 27.411 24.4615 25.98 26.3785 25.98C28.2685 25.98 29.4295 27.411 29.4295 30.084C29.4295 31.3317 29.1765 32.3088 28.7145 32.9961H33.2604Z" fill="var(--fill-0, #0C111D)"/>
<path d="M9.69206 17.2319C12.2571 17.2319 13.2291 18.7709 13.5801 20.8769H18.4401C17.9811 16.3949 15.1731 13.2629 9.90806 13.2629C3.80606 13.2629 0.539062 17.5289 0.539062 23.3339C0.539062 29.1659 3.80606 33.4319 9.90806 33.4319C15.2001 33.4319 18.0081 30.2999 18.4401 25.7639H13.5801C13.2561 27.9239 12.2841 29.4629 9.69206 29.4629C6.47906 29.4629 5.39906 26.9789 5.39906 23.3339C5.39906 19.7159 6.47906 17.2319 9.69206 17.2319Z" fill="var(--fill-0, #0C111D)"/>
<path d="M48.0896 23.6579C48.0896 20.4989 46.2806 18.7439 43.6076 18.7439C41.1506 18.7439 39.8006 19.9049 39.0716 21.1739H39.0176V18.93H34.6976V32.9999H39.0176V25.0079C39.0176 23.0909 39.9626 22.2539 41.6096 22.2539C43.0406 22.2539 43.7696 22.9559 43.7696 25.0349V32.9999H48.0896V23.6579Z" fill="var(--fill-0, #0C111D)"/>
<path d="M48.1584 19.1759H52.4784L55.2864 28.1939H55.3404L58.1484 19.1759H62.4684L57.6894 32.9999H52.9374L48.1584 19.1759Z" fill="var(--fill-0, #0C111D)"/>
<path fill-rule="evenodd" clip-rule="evenodd" d="M71.2918 29.22C70.9258 29.7442 70.2393 30.1919 69.0533 30.1919C67.5143 30.1919 66.0833 29.1659 66.0833 27.2219H70V27.22H76V27.2219H76.0192C76.0192 22.1999 73.6162 18.7439 68.8913 18.7439C64.4902 18.7439 61.7632 21.8759 61.7632 26.0879C61.7632 30.4079 64.5443 33.4319 69.1342 33.4319C72.7019 33.4319 74.83 31.7728 75.6809 29.22H71.2918ZM66.0833 24.6029C66.0833 22.6859 67.2442 21.7139 68.8913 21.7139C70.5383 21.7139 71.6992 22.6859 71.6992 24.6029H66.0833Z" fill="var(--fill-0, #0C111D)"/>
<path d="M84.7017 18.9329C85.0797 18.9329 85.4036 18.9329 85.8896 19.0409V22.8209H85.8357C83.6217 22.4159 81.2727 23.6309 81.2727 26.5739V32.9999H76.9527V18.93H81.2727V21.4439H81.3267C82.0017 19.9049 83.1897 18.9329 84.7017 18.9329Z" fill="var(--fill-0, #0C111D)"/>
<path fill-rule="evenodd" clip-rule="evenodd" d="M99.8229 18.93H95.5029V20.5529H95.4489C94.9089 19.8239 93.6939 18.7439 91.6689 18.7439C88.1319 18.7439 85.8639 21.5519 85.8639 25.5479C85.8639 29.5439 88.1319 32.3519 91.6689 32.3519C93.6939 32.3519 94.9089 31.2719 95.4489 30.5429H95.5029V31.3529C95.5029 33.6479 94.8549 34.6739 92.9109 34.6739C91.3989 34.6739 90.7239 34.0529 90.4539 33.2969H86.1339C86.6199 35.5109 88.6449 37.7789 93.0189 37.7789C97.2039 37.7789 99.8229 36.2129 99.8229 31.6499V18.93ZM95.4219 25.5479C95.4219 27.7889 94.5579 29.1119 92.8029 29.1119C91.0479 29.1119 90.1839 27.7889 90.1839 25.5479C90.1839 23.3069 91.0479 21.9839 92.8029 21.9839C94.5579 21.9839 95.4219 23.3069 95.4219 25.5479Z" fill="var(--fill-0, #0C111D)"/>
<path fill-rule="evenodd" clip-rule="evenodd" d="M108.065 30.1919C109.251 30.1919 109.938 29.7442 110.304 29.22H114.693C113.842 31.7728 111.714 33.4319 108.146 33.4319C103.556 33.4319 100.775 30.4079 100.775 26.0879C100.775 21.8759 103.502 18.7439 107.903 18.7439C112.628 18.7439 115.031 22.1999 115.031 27.2219H115V27.22H109V27.2219H105.095C105.095 29.1659 106.526 30.1919 108.065 30.1919ZM107.903 21.7139C106.256 21.7139 105.095 22.6859 105.095 24.6029H110.711C110.711 22.6859 109.55 21.7139 107.903 21.7139Z" fill="var(--fill-0, #0C111D)"/>
<path d="M129.356 23.6579C129.356 20.4989 127.547 18.7439 124.874 18.7439C122.417 18.7439 121.067 19.9049 120.338 21.1739H120.284V18.93H115.964V32.9999H120.284V25.0079C120.284 23.0909 121.229 22.2539 122.876 22.2539C124.307 22.2539 125.036 22.9559 125.036 25.0349V32.9999H129.356V23.6579Z" fill="var(--fill-0, #0C111D)"/>
<path d="M139.76 24.3329C139.625 23.2259 139.031 21.9839 137.303 21.9839C135.521 21.9839 134.522 23.4959 134.522 26.0879C134.522 28.6799 135.494 30.1919 137.303 30.1919C139.031 30.1919 139.625 29.0309 139.76 27.7889H143.999C143.783 31.0559 141.299 33.4319 137.33 33.4319C132.956 33.4319 130.202 30.4079 130.202 26.0879C130.202 21.7949 132.956 18.7439 137.222 18.7439C141.245 18.7439 143.648 21.1199 143.999 24.3329H139.76Z" fill="var(--fill-0, #0C111D)"/>
<path fill-rule="evenodd" clip-rule="evenodd" d="M153.772 29.22C153.406 29.7442 152.719 30.1919 151.533 30.1919C149.994 30.1919 148.563 29.1659 148.563 27.2219H153V27.22H158.499C158.498 22.199 156.095 18.7439 151.371 18.7439C146.97 18.7439 144.243 21.8759 144.243 26.0879C144.243 30.4079 147.024 33.4319 151.614 33.4319C155.182 33.4319 157.31 31.7728 158.161 29.22H153.772ZM148.563 24.6029C148.563 22.6859 149.724 21.7139 151.371 21.7139C153.018 21.7139 154.179 22.6859 154.179 24.6029H148.563Z" fill="var(--fill-0, #0C111D)"/>
</g>
</g>
</svg>
