<svg preserveAspectRatio="none" width="100%" height="100%" overflow="visible" style="display: block;" viewBox="0 0 42 48" fill="none" xmlns="http://www.w3.org/2000/svg">
<g id="Logomark">
<path id="Vector" d="M32.001 37.123L29.8799 39.2441L22.541 31.9053L22.542 45L21.041 44.999L19.54 45V31.9063L12.2021 39.2441L10.0811 37.123L21.041 26.1631L32.001 37.123ZM18.9199 24.042L7.95996 35.002L5.83887 32.8809L13.1777 25.541H0.00292963V22.542H13.1777L5.83887 15.2031L7.95996 13.0811L18.9199 24.042ZM36.2432 15.2031L28.9043 22.542H41.999V25.541H28.9043L36.2432 32.8809L34.1221 35.002L23.1621 24.042L34.1221 13.0811L36.2432 15.2031ZM22.541 16.1777L29.8799 8.83887L32.001 10.96L21.041 21.9199L10.0811 10.96L12.2021 8.83887L19.541 16.1777V3H22.541V16.1777Z" fill="var(--fill-0, #0C111D)"/>
</g>
</svg>
