<svg preserveAspectRatio="none" width="100%" height="100%" overflow="visible" style="display: block;" viewBox="0 0 128 48" fill="none" xmlns="http://www.w3.org/2000/svg">
<g id="Logotext">
<g id="Vector">
<path d="M0 33V14.478H14.796V17.772H4.05V21.903H13.554V25.17H4.05V29.679H14.958V33H0Z" fill="var(--fill-0, #0C111D)"/>
<path d="M17.0267 37.806V18.798H20.1047L20.4287 20.715H20.6177C21.0857 19.941 21.6977 19.374 22.4537 19.014C23.2097 18.654 24.0467 18.474 24.9647 18.474C26.1527 18.474 27.1697 18.735 28.0157 19.257C28.8797 19.779 29.5367 20.589 29.9867 21.687C30.4547 22.785 30.6887 24.198 30.6887 25.926C30.6887 27.6 30.4547 28.986 29.9867 30.084C29.5187 31.182 28.8617 32.001 28.0157 32.541C27.1877 33.063 26.2157 33.324 25.0997 33.324C24.4877 33.324 23.9207 33.252 23.3987 33.108C22.8767 32.982 22.4087 32.775 21.9947 32.487C21.5807 32.199 21.2297 31.848 20.9417 31.434H20.7797V37.806H17.0267ZM23.8037 30.246C24.5597 30.246 25.1537 30.102 25.5857 29.814C26.0357 29.508 26.3597 29.058 26.5577 28.464C26.7557 27.852 26.8547 27.105 26.8547 26.223V25.602C26.8547 24.702 26.7557 23.955 26.5577 23.361C26.3597 22.749 26.0357 22.299 25.5857 22.011C25.1537 21.705 24.5597 21.552 23.8037 21.552C23.1017 21.552 22.5257 21.714 22.0757 22.038C21.6257 22.362 21.2927 22.83 21.0767 23.442C20.8607 24.054 20.7527 24.792 20.7527 25.656V26.115C20.7527 26.745 20.8157 27.321 20.9417 27.843C21.0677 28.347 21.2477 28.779 21.4817 29.139C21.7337 29.499 22.0487 29.778 22.4267 29.976C22.8047 30.156 23.2637 30.246 23.8037 30.246Z" fill="var(--fill-0, #0C111D)"/>
<path d="M32.3734 33V13.479H36.1264V20.364H36.3154C36.6214 19.986 36.9814 19.662 37.3954 19.392C37.8274 19.104 38.3044 18.879 38.8264 18.717C39.3664 18.555 39.9514 18.474 40.5814 18.474C41.5174 18.474 42.3364 18.645 43.0384 18.987C43.7404 19.329 44.2804 19.869 44.6584 20.607C45.0544 21.345 45.2524 22.308 45.2524 23.496V33H41.4994V24.09C41.4994 23.64 41.4454 23.262 41.3374 22.956C41.2294 22.632 41.0674 22.371 40.8514 22.173C40.6534 21.957 40.4014 21.804 40.0954 21.714C39.7894 21.624 39.4474 21.579 39.0694 21.579C38.5114 21.579 38.0074 21.714 37.5574 21.984C37.1074 22.254 36.7564 22.623 36.5044 23.091C36.2524 23.559 36.1264 24.099 36.1264 24.711V33H32.3734Z" fill="var(--fill-0, #0C111D)"/>
<path d="M53.9886 33.324C52.4226 33.324 51.1086 33.063 50.0466 32.541C48.9846 32.001 48.1836 31.182 47.6436 30.084C47.1036 28.986 46.8336 27.591 46.8336 25.899C46.8336 24.189 47.1036 22.794 47.6436 21.714C48.1836 20.616 48.9756 19.806 50.0196 19.284C51.0816 18.744 52.3776 18.474 53.9076 18.474C55.3476 18.474 56.5626 18.735 57.5526 19.257C58.5426 19.761 59.2896 20.553 59.7936 21.633C60.2976 22.695 60.5496 24.072 60.5496 25.764V26.736H50.6406C50.6766 27.564 50.8026 28.266 51.0186 28.842C51.2526 29.418 51.6036 29.85 52.0716 30.138C52.5576 30.408 53.1966 30.543 53.9886 30.543C54.4206 30.543 54.8076 30.489 55.1496 30.381C55.5096 30.273 55.8156 30.111 56.0676 29.895C56.3196 29.679 56.5176 29.409 56.6616 29.085C56.8056 28.761 56.8776 28.392 56.8776 27.978H60.5496C60.5496 28.878 60.3876 29.661 60.0636 30.327C59.7396 30.993 59.2896 31.551 58.7136 32.001C58.1376 32.433 57.4446 32.766 56.6346 33C55.8426 33.216 54.9606 33.324 53.9886 33.324ZM50.6946 24.36H56.6886C56.6886 23.82 56.6166 23.352 56.4726 22.956C56.3466 22.56 56.1666 22.236 55.9326 21.984C55.6986 21.732 55.4106 21.552 55.0686 21.444C54.7446 21.318 54.3756 21.255 53.9616 21.255C53.2776 21.255 52.7016 21.372 52.2336 21.606C51.7836 21.822 51.4326 22.164 51.1806 22.632C50.9466 23.082 50.7846 23.658 50.6946 24.36Z" fill="var(--fill-0, #0C111D)"/>
<path d="M62.2232 33V18.798H65.3282L65.6252 20.742H65.8142C66.1202 20.274 66.4802 19.869 66.8942 19.527C67.3262 19.185 67.8032 18.924 68.3252 18.744C68.8652 18.564 69.4412 18.474 70.0532 18.474C70.9532 18.474 71.7272 18.654 72.3752 19.014C73.0412 19.374 73.5542 19.95 73.9142 20.742H74.1032C74.4092 20.274 74.7782 19.869 75.2102 19.527C75.6422 19.185 76.1372 18.924 76.6952 18.744C77.2532 18.564 77.8472 18.474 78.4772 18.474C79.3772 18.474 80.1512 18.636 80.7992 18.96C81.4652 19.284 81.9872 19.815 82.3652 20.553C82.7432 21.273 82.9322 22.209 82.9322 23.361V33H79.1792V24.036C79.1792 23.586 79.1252 23.208 79.0172 22.902C78.9272 22.578 78.7922 22.326 78.6122 22.146C78.4322 21.948 78.2072 21.804 77.9372 21.714C77.6672 21.624 77.3792 21.579 77.0732 21.579C76.5692 21.579 76.1192 21.714 75.7232 21.984C75.3272 22.254 75.0122 22.623 74.7782 23.091C74.5622 23.559 74.4542 24.099 74.4542 24.711V33H70.7012V24.036C70.7012 23.586 70.6472 23.208 70.5392 22.902C70.4492 22.578 70.3142 22.326 70.1342 22.146C69.9542 21.948 69.7292 21.804 69.4592 21.714C69.2072 21.624 68.9192 21.579 68.5952 21.579C68.1092 21.579 67.6592 21.714 67.2452 21.984C66.8492 22.254 66.5342 22.623 66.3002 23.091C66.0842 23.559 65.9762 24.099 65.9762 24.711V33H62.2232Z" fill="var(--fill-0, #0C111D)"/>
<path d="M91.6431 33.324C90.0771 33.324 88.7631 33.063 87.7011 32.541C86.6391 32.001 85.8381 31.182 85.2981 30.084C84.7581 28.986 84.4881 27.591 84.4881 25.899C84.4881 24.189 84.7581 22.794 85.2981 21.714C85.8381 20.616 86.6301 19.806 87.6741 19.284C88.7361 18.744 90.0321 18.474 91.5621 18.474C93.0021 18.474 94.2171 18.735 95.2071 19.257C96.1971 19.761 96.9441 20.553 97.4481 21.633C97.9521 22.695 98.2041 24.072 98.2041 25.764V26.736H88.2951C88.3311 27.564 88.4571 28.266 88.6731 28.842C88.9071 29.418 89.2581 29.85 89.7261 30.138C90.2121 30.408 90.8511 30.543 91.6431 30.543C92.0751 30.543 92.4621 30.489 92.8041 30.381C93.1641 30.273 93.4701 30.111 93.7221 29.895C93.9741 29.679 94.1721 29.409 94.3161 29.085C94.4601 28.761 94.5321 28.392 94.5321 27.978H98.2041C98.2041 28.878 98.0421 29.661 97.7181 30.327C97.3941 30.993 96.9441 31.551 96.3681 32.001C95.7921 32.433 95.0991 32.766 94.2891 33C93.4971 33.216 92.6151 33.324 91.6431 33.324ZM88.3491 24.36H94.3431C94.3431 23.82 94.2711 23.352 94.1271 22.956C94.0011 22.56 93.8211 22.236 93.5871 21.984C93.3531 21.732 93.0651 21.552 92.7231 21.444C92.3991 21.318 92.0301 21.255 91.6161 21.255C90.9321 21.255 90.3561 21.372 89.8881 21.606C89.4381 21.822 89.0871 22.164 88.8351 22.632C88.6011 23.082 88.4391 23.658 88.3491 24.36Z" fill="var(--fill-0, #0C111D)"/>
<path d="M99.8776 33V18.798H102.983L103.28 21.012H103.469C103.649 20.544 103.883 20.121 104.171 19.743C104.459 19.347 104.819 19.032 105.251 18.798C105.683 18.564 106.187 18.447 106.763 18.447C107.069 18.447 107.348 18.483 107.6 18.555C107.852 18.609 108.041 18.663 108.167 18.717V22.119H107.006C106.448 22.119 105.953 22.2 105.521 22.362C105.107 22.506 104.756 22.74 104.468 23.064C104.18 23.388 103.964 23.784 103.82 24.252C103.694 24.72 103.631 25.269 103.631 25.899V33H99.8776Z" fill="var(--fill-0, #0C111D)"/>
<path d="M112.544 33.324C112.076 33.324 111.572 33.27 111.032 33.162C110.51 33.054 110.015 32.865 109.547 32.595C109.079 32.307 108.692 31.902 108.386 31.38C108.098 30.84 107.954 30.156 107.954 29.328C107.954 28.338 108.17 27.519 108.602 26.871C109.034 26.223 109.646 25.719 110.438 25.359C111.248 24.981 112.211 24.72 113.327 24.576C114.443 24.432 115.676 24.36 117.026 24.36V23.307C117.026 22.893 116.954 22.533 116.81 22.227C116.684 21.921 116.45 21.678 116.108 21.498C115.784 21.318 115.325 21.228 114.731 21.228C114.137 21.228 113.651 21.3 113.273 21.444C112.913 21.588 112.652 21.777 112.49 22.011C112.346 22.227 112.274 22.47 112.274 22.74V23.064H108.629C108.611 22.974 108.602 22.893 108.602 22.821C108.602 22.731 108.602 22.623 108.602 22.497C108.602 21.669 108.854 20.958 109.358 20.364C109.862 19.752 110.573 19.284 111.491 18.96C112.409 18.636 113.48 18.474 114.704 18.474C116.018 18.474 117.116 18.645 117.998 18.987C118.898 19.329 119.582 19.833 120.05 20.499C120.536 21.165 120.779 22.002 120.779 23.01V29.463C120.779 29.787 120.869 30.03 121.049 30.192C121.247 30.336 121.463 30.408 121.697 30.408H122.588V32.865C122.408 32.955 122.129 33.045 121.751 33.135C121.373 33.243 120.914 33.297 120.374 33.297C119.852 33.297 119.384 33.216 118.97 33.054C118.574 32.91 118.241 32.703 117.971 32.433C117.701 32.145 117.512 31.803 117.404 31.407H117.215C116.909 31.785 116.531 32.118 116.081 32.406C115.649 32.694 115.136 32.919 114.542 33.081C113.966 33.243 113.3 33.324 112.544 33.324ZM113.813 30.489C114.317 30.489 114.767 30.417 115.163 30.273C115.559 30.111 115.892 29.904 116.162 29.652C116.432 29.382 116.639 29.058 116.783 28.68C116.945 28.302 117.026 27.897 117.026 27.465V26.682C116.018 26.682 115.118 26.754 114.326 26.898C113.534 27.024 112.904 27.249 112.436 27.573C111.986 27.897 111.761 28.347 111.761 28.923C111.761 29.247 111.842 29.526 112.004 29.76C112.166 29.994 112.4 30.174 112.706 30.3C113.012 30.426 113.381 30.489 113.813 30.489Z" fill="var(--fill-0, #0C111D)"/>
<path d="M123.373 33V13.479H127.126V33H123.373Z" fill="var(--fill-0, #0C111D)"/>
</g>
</g>
</svg>
