<svg preserveAspectRatio="none" width="100%" height="100%" overflow="visible" style="display: block;" viewBox="0 0 172 48" fill="none" xmlns="http://www.w3.org/2000/svg">
<g id="Logotext">
<g id="Vector">
<path d="M4.563 33.0002H0V13.7762H4.563V33.0002Z" fill="var(--fill-0, #0C111D)"/>
<path d="M23.4453 18.7442C24.9753 18.7442 26.1723 19.2032 27.0363 20.1212C27.9003 21.0212 28.3323 22.2992 28.3323 23.9552V33.0002H24.1203V24.6842C24.1203 23.1182 23.4273 22.3352 22.0413 22.3352C21.3033 22.3352 20.7183 22.5872 20.2863 23.0912C19.8543 23.5952 19.6383 24.3332 19.6383 25.3052V33.0002H15.4263V24.6842C15.4263 23.1182 14.7333 22.3352 13.3473 22.3352C12.6093 22.3352 12.0153 22.5872 11.5653 23.0912C11.1333 23.5952 10.9173 24.3332 10.9173 25.3052V33.0002H6.70528V19.0682H11.06L10.8093 21.0392C11.8353 19.5092 13.1583 18.7442 14.7783 18.7442C16.8663 18.7442 18.3063 19.5812 19.0983 21.2552C20.2323 19.5812 21.6813 18.7442 23.4453 18.7442Z" fill="var(--fill-0, #0C111D)"/>
<path d="M39.9052 20.9042L39.66 19.0682H44.0092V32.5682C44.0092 34.4582 43.3792 35.9342 42.1192 36.9962C40.8772 38.0762 39.1312 38.6162 36.8812 38.6162C34.8112 38.6162 33.1912 38.1572 32.0212 37.2392C30.8512 36.3392 30.2212 35.0972 30.1312 33.5132H34.2892C34.3972 34.8092 35.2882 35.4572 36.9622 35.4572C37.8802 35.4572 38.5822 35.2142 39.0682 34.7282C39.5542 34.2602 39.7972 33.5942 39.7972 32.7302V30.7322C38.9152 32.0462 37.5832 32.7032 35.8012 32.7032C33.9652 32.7032 32.4802 32.0552 31.3462 30.7592C30.2122 29.4632 29.6452 27.7802 29.6452 25.7102C29.6452 23.6582 30.2032 21.9752 31.3192 20.6612C32.4352 19.3832 33.9022 18.7442 35.7202 18.7442C37.5922 18.7442 38.9872 19.4642 39.9052 20.9042ZM36.8812 29.3282C37.8352 29.3282 38.5732 29.0222 39.0952 28.4102C39.6172 27.7802 39.8782 26.8802 39.8782 25.7102C39.8782 24.5402 39.6172 23.6492 39.0952 23.0372C38.5912 22.4252 37.8532 22.1192 36.8812 22.1192C35.9452 22.1192 35.2162 22.4432 34.6942 23.0912C34.1722 23.7212 33.9112 24.6122 33.9112 25.7642C33.9112 26.8982 34.1722 27.7802 34.6942 28.4102C35.2162 29.0222 35.9452 29.3282 36.8812 29.3282Z" fill="var(--fill-0, #0C111D)"/>
<path d="M54.906 33.4322C52.044 33.4322 49.731 32.5232 47.967 30.7052C46.203 28.8872 45.321 26.4482 45.321 23.3882C45.321 20.2922 46.185 17.8442 47.913 16.0442C49.641 14.2442 51.972 13.3442 54.906 13.3442C57.282 13.3442 59.298 13.9742 60.954 15.2342C62.646 16.5122 63.663 18.3212 64.005 20.6612H59.388C59.1 19.5812 58.56 18.7532 57.768 18.1772C56.994 17.5832 56.04 17.2862 54.906 17.2862C53.358 17.2862 52.161 17.8172 51.315 18.8792C50.487 19.9412 50.073 21.4442 50.073 23.3882C50.073 25.3322 50.487 26.8352 51.315 27.8972C52.161 28.9592 53.358 29.4902 54.906 29.4902C56.094 29.4902 57.102 29.1482 57.93 28.4642C58.758 27.7802 59.28 26.8262 59.496 25.6022H64.059C63.771 28.0862 62.79 30.0122 61.116 31.3802C59.424 32.7482 57.354 33.4322 54.906 33.4322Z" fill="var(--fill-0, #0C111D)"/>
<path d="M77.4297 31.3262C76.0977 32.6582 74.3247 33.3242 72.1107 33.3242C69.8967 33.3242 68.1237 32.6582 66.7917 31.3262C65.4597 29.9942 64.7937 28.2302 64.7937 26.0342C64.7937 23.8202 65.4597 22.0472 66.7917 20.7152C68.1057 19.4012 69.8787 18.7442 72.1107 18.7442C74.3427 18.7442 76.1157 19.4012 77.4297 20.7152C78.7437 22.0292 79.4007 23.8022 79.4007 26.0342C79.4007 28.2482 78.7437 30.0122 77.4297 31.3262ZM72.1107 29.9492C73.0827 29.9492 73.8297 29.6162 74.3517 28.9502C74.8737 28.2842 75.1347 27.3122 75.1347 26.0342C75.1347 24.7562 74.8737 23.7842 74.3517 23.1182C73.8297 22.4522 73.0827 22.1192 72.1107 22.1192C71.1207 22.1192 70.3647 22.4522 69.8427 23.1182C69.3207 23.7842 69.0597 24.7562 69.0597 26.0342C69.0597 27.3122 69.3207 28.2842 69.8427 28.9502C70.3647 29.6162 71.1207 29.9492 72.1107 29.9492Z" fill="var(--fill-0, #0C111D)"/>
<path d="M97.4601 18.7442C98.9901 18.7442 100.187 19.2032 101.051 20.1212C101.915 21.0212 102.347 22.2992 102.347 23.9552V33.0002H98.1351V24.6842C98.1351 23.1182 97.4421 22.3352 96.0561 22.3352C95.3181 22.3352 94.7331 22.5872 94.3011 23.0912C93.8691 23.5952 93.6531 24.3332 93.6531 25.3052V33.0002H89.4411V24.6842C89.4411 23.1182 88.7481 22.3352 87.3621 22.3352C86.6241 22.3352 86.0301 22.5872 85.5801 23.0912C85.1481 23.5952 84.9321 24.3332 84.9321 25.3052V33.0002H80.7201V19.0682H85.07L84.8241 21.0392C85.8501 19.5092 87.1731 18.7442 88.7931 18.7442C90.8811 18.7442 92.3211 19.5812 93.1131 21.2552C94.2471 19.5812 95.6961 18.7442 97.4601 18.7442Z" fill="var(--fill-0, #0C111D)"/>
<path d="M112.543 18.7442C114.415 18.7442 115.9 19.4012 116.998 20.7152C118.078 22.0292 118.618 23.8022 118.618 26.0342C118.618 28.2662 118.078 30.0392 116.998 31.3532C115.9 32.6672 114.415 33.3242 112.543 33.3242C110.761 33.3242 109.393 32.6492 108.439 31.2992V38.2922H104.227V19.0682H108.58L108.331 20.9312C109.285 19.4732 110.689 18.7442 112.543 18.7442ZM111.382 29.9492C112.318 29.9492 113.047 29.6072 113.569 28.9232C114.091 28.2212 114.352 27.2222 114.352 25.9262C114.352 23.3882 113.362 22.1192 111.382 22.1192C109.384 22.1192 108.385 23.4242 108.385 26.0342C108.385 28.6442 109.384 29.9492 111.382 29.9492Z" fill="var(--fill-0, #0C111D)"/>
<path d="M128.002 18.8522C128.074 18.8522 128.38 18.8702 128.92 18.9062V22.7402H127.84C125.374 22.7402 124.141 24.0002 124.141 26.5202V33.0002H119.929V19.0682H124.28L124.033 21.6602C124.681 19.7882 126.004 18.8522 128.002 18.8522Z" fill="var(--fill-0, #0C111D)"/>
<path d="M143.364 26.4392V27.2762H133.05C133.194 28.2302 133.545 28.9592 134.103 29.4632C134.661 29.9672 135.372 30.2192 136.236 30.2192C137.604 30.2192 138.54 29.6972 139.044 28.6532H143.04C142.662 30.0932 141.861 31.2362 140.637 32.0822C139.413 32.9102 137.946 33.3242 136.236 33.3242C134.076 33.3242 132.33 32.6582 130.998 31.3262C129.666 29.9942 129 28.2302 129 26.0342C129 23.8202 129.657 22.0562 130.971 20.7422C132.267 19.4102 134.004 18.7442 136.182 18.7442C138.342 18.7442 140.088 19.4372 141.42 20.8232C142.716 22.2272 143.364 24.0992 143.364 26.4392ZM136.128 21.8492C134.4 21.8492 133.383 22.7672 133.077 24.6032H139.233C139.089 23.7392 138.747 23.0642 138.207 22.5782C137.667 22.0922 136.974 21.8492 136.128 21.8492Z" fill="var(--fill-0, #0C111D)"/>
<path d="M150.706 33.4052C148.51 33.4052 146.872 33.0272 145.792 32.2712C144.73 31.4972 144.136 30.2642 144.01 28.5722H148.114C148.186 29.3102 148.42 29.8322 148.816 30.1382C149.23 30.4442 149.887 30.5972 150.787 30.5972C152.353 30.5972 153.136 30.1472 153.136 29.2472C153.136 28.8152 152.965 28.4912 152.623 28.2752C152.281 28.0412 151.651 27.8522 150.733 27.7082L148.924 27.4112C145.792 26.9252 144.226 25.5032 144.226 23.1452C144.226 21.7412 144.766 20.6612 145.846 19.9052C146.926 19.1312 148.474 18.7442 150.49 18.7442C154.648 18.7442 156.808 20.3372 156.97 23.5232H153.055C153.037 22.2092 152.182 21.5522 150.49 21.5522C149.068 21.5522 148.357 21.9932 148.357 22.8752C148.357 23.2712 148.519 23.5772 148.843 23.7932C149.167 24.0092 149.68 24.1712 150.382 24.2792L152.461 24.5762C154.135 24.8282 155.368 25.3052 156.16 26.0072C156.952 26.7092 157.348 27.6722 157.348 28.8962C157.348 30.3362 156.763 31.4522 155.593 32.2442C154.441 33.0182 152.812 33.4052 150.706 33.4052Z" fill="var(--fill-0, #0C111D)"/>
<path d="M164.642 33.4052C162.446 33.4052 160.808 33.0272 159.728 32.2712C158.666 31.4972 158.072 30.2642 157.946 28.5722H162.05C162.122 29.3102 162.356 29.8322 162.752 30.1382C163.166 30.4442 163.823 30.5972 164.723 30.5972C166.289 30.5972 167.072 30.1472 167.072 29.2472C167.072 28.8152 166.901 28.4912 166.559 28.2752C166.217 28.0412 165.587 27.8522 164.669 27.7082L162.86 27.4112C159.728 26.9252 158.162 25.5032 158.162 23.1452C158.162 21.7412 158.702 20.6612 159.782 19.9052C160.862 19.1312 162.41 18.7442 164.426 18.7442C168.584 18.7442 170.744 20.3372 170.906 23.5232H166.991C166.973 22.2092 166.118 21.5522 164.426 21.5522C163.004 21.5522 162.293 21.9932 162.293 22.8752C162.293 23.2712 162.455 23.5772 162.779 23.7932C163.103 24.0092 163.616 24.1712 164.318 24.2792L166.397 24.5762C168.071 24.8282 169.304 25.3052 170.096 26.0072C170.888 26.7092 171.284 27.6722 171.284 28.8962C171.284 30.3362 170.699 31.4522 169.529 32.2442C168.377 33.0182 166.748 33.4052 164.642 33.4052Z" fill="var(--fill-0, #0C111D)"/>
</g>
</g>
</svg>
