<svg preserveAspectRatio="none" width="100%" height="100%" overflow="visible" style="display: block;" viewBox="0 0 48 48" fill="none" xmlns="http://www.w3.org/2000/svg">
<g id="Logomark">
<path id="Vector" opacity="0.4" d="M45.7999 21.2374C43.7211 23.3162 40.3508 23.3162 38.272 21.2374C36.1932 19.1586 36.1932 15.7883 38.272 13.7095C40.3508 11.6307 43.7211 11.6307 45.7999 13.7095C47.8787 15.7883 47.8787 19.1586 45.7999 21.2374Z" fill="var(--fill-0, #155EEF)"/>
<path id="Vector_2" opacity="0.6" d="M45.7954 21.2356C43.7166 23.3143 40.3462 23.3143 38.2674 21.2356L30.8331 13.8013C28.7543 11.7225 25.384 11.7225 23.3052 13.8013C21.2264 15.8801 21.2264 19.2504 23.3052 21.3292L30.7395 28.7635C32.8183 30.8423 36.1886 30.8423 38.2674 28.7635L45.7954 21.2356Z" fill="var(--fill-0, #155EEF)"/>
<path id="Vector_3" d="M38.2671 28.7652C36.1883 30.844 32.8179 30.844 30.7391 28.7652L16.3106 14.3366C13.5388 11.5649 9.04501 11.5649 6.27329 14.3366L0 20.6099C2.07879 18.5311 5.44916 18.5311 7.52795 20.6099L23.2112 36.2931C25.29 38.3719 28.6603 38.3719 30.7391 36.2931L38.2671 28.7652Z" fill="var(--fill-0, #155EEF)"/>
</g>
</svg>
