<svg preserveAspectRatio="none" width="100%" height="100%" overflow="visible" style="display: block;" viewBox="0 0 141 48" fill="none" xmlns="http://www.w3.org/2000/svg">
<g id="Logotext">
<g id="Vector">
<path d="M16.362 32.9998L12.744 19.4458L9.126 32.9998H4.968L0 13.6138H3.996L7.128 26.7628L10.692 13.6138H14.877L18.333 26.8168L21.492 13.6138H25.515L20.52 32.9998H16.362Z" fill="var(--fill-0, #0C111D)"/>
<path d="M30.7726 15.2338C30.7726 16.5028 29.7466 17.4478 28.2616 17.4478C26.8036 17.4478 25.7776 16.5028 25.7776 15.2338C25.7776 13.9108 26.8036 12.9658 28.2616 12.9658C29.7466 12.9658 30.7726 13.9108 30.7726 15.2338ZM30.1786 32.9998H26.4256V18.5818H30.1786V32.9998Z" fill="var(--fill-0, #0C111D)"/>
<path d="M36.2184 32.9998H32.4384V13.6138H36.2184V32.9998Z" fill="var(--fill-0, #0C111D)"/>
<path d="M37.5589 25.7908C37.5589 21.5248 40.0699 18.3118 43.9579 18.3118C45.6859 18.3118 47.1439 19.0678 48.2239 20.4448V13.6138H51.9499V32.9998H48.5209V30.9208C47.3869 32.4328 45.8209 33.2698 43.9579 33.2698C40.0699 33.2698 37.5589 30.0028 37.5589 25.7908ZM41.4199 25.7908C41.4199 28.4908 42.9589 29.9218 44.7949 29.9218C46.6579 29.9218 48.1969 28.4638 48.1969 25.7368C48.1969 23.0098 46.6309 21.6328 44.7949 21.6328C42.9589 21.6328 41.4199 23.0368 41.4199 25.7908Z" fill="var(--fill-0, #0C111D)"/>
<path d="M60.2948 33.2698C56.1368 33.2698 53.2748 30.1918 53.2748 25.7908C53.2748 21.4708 56.2448 18.3118 60.2948 18.3118C64.0478 18.3118 66.8288 20.8498 67.2878 24.7378H63.3458C63.1568 22.8208 61.9958 21.6328 60.2948 21.6328C58.3508 21.6328 57.1088 23.2258 57.1088 25.7908C57.1088 28.3828 58.3238 29.9488 60.2948 29.9488C62.0228 29.9488 63.1298 28.8148 63.3458 26.8438H67.2878C66.8558 30.8128 64.1558 33.2698 60.2948 33.2698Z" fill="var(--fill-0, #0C111D)"/>
<path d="M72.3703 26.0068V32.9998H68.6173V18.5818H72.0733V21.3628C73.1263 19.5268 75.3673 18.4198 77.6893 18.4198V22.3078C74.5033 22.0648 72.3703 22.8208 72.3703 26.0068Z" fill="var(--fill-0, #0C111D)"/>
<path d="M87.1448 32.9998V31.2178C86.1998 32.5678 84.7688 33.2698 82.7978 33.2698C79.8008 33.2698 77.8028 31.5148 77.8028 28.8148C77.8028 26.0068 80.0708 24.4948 84.2828 24.4948C85.0928 24.4948 85.7948 24.5488 86.6858 24.6568V23.7928C86.6858 22.1728 85.7678 21.2278 84.2018 21.2278C82.5818 21.2278 81.6098 22.1728 81.4748 23.7928H78.0998C78.3158 20.4718 80.7188 18.3118 84.2018 18.3118C87.9818 18.3118 90.1958 20.3908 90.1958 23.9278V32.9998H87.1448ZM81.3398 28.7068C81.3398 29.9218 82.2038 30.6778 83.6078 30.6778C85.5248 30.6778 86.6858 29.6248 86.6858 27.9508V26.9248C85.7948 26.7898 85.1738 26.7358 84.5258 26.7358C82.3928 26.7358 81.3398 27.4108 81.3398 28.7068Z" fill="var(--fill-0, #0C111D)"/>
<path d="M97.242 32.9998H93.516V21.7948H90.6V18.5818H93.516V17.7988C93.516 14.9368 95.055 13.3168 98.052 13.3168C98.97 13.3168 99.753 13.4788 100.374 13.7488V16.7188C99.969 16.5568 99.429 16.4758 98.943 16.4758C97.917 16.4758 97.242 16.8808 97.242 17.8798V18.5818H100.995V21.7948H97.242V32.9998Z" fill="var(--fill-0, #0C111D)"/>
<path d="M111.572 29.3548V32.6218C110.654 33.0808 109.79 33.2698 108.683 33.2698C105.713 33.2698 103.85 31.5688 103.85 28.3288V21.7948H100.934V18.5818H103.85V14.3158H107.576V18.5818H111.707V21.7948H107.576V27.4648C107.576 29.1388 108.332 29.8138 109.682 29.8138C110.384 29.8138 111.032 29.6518 111.572 29.3548Z" fill="var(--fill-0, #0C111D)"/>
<path d="M118.866 33.2428C114.546 33.2428 111.657 30.2458 111.657 25.7368C111.657 21.4438 114.654 18.3118 118.812 18.3118C123.375 18.3118 126.399 22.0108 125.724 26.7088H115.491C115.734 29.0578 116.868 30.3538 118.785 30.3538C120.432 30.3538 121.539 29.5438 121.971 28.1128H125.697C124.887 31.3798 122.376 33.2428 118.866 33.2428ZM118.731 21.0658C116.976 21.0658 115.869 22.1998 115.545 24.3328H121.755C121.647 22.3348 120.513 21.0658 118.731 21.0658Z" fill="var(--fill-0, #0C111D)"/>
<path d="M125.949 25.7908C125.949 21.5248 128.46 18.3118 132.348 18.3118C134.076 18.3118 135.534 19.0678 136.614 20.4448V13.6138H140.34V32.9998H136.911V30.9208C135.777 32.4328 134.211 33.2698 132.348 33.2698C128.46 33.2698 125.949 30.0028 125.949 25.7908ZM129.81 25.7908C129.81 28.4908 131.349 29.9218 133.185 29.9218C135.048 29.9218 136.587 28.4638 136.587 25.7368C136.587 23.0098 135.021 21.6328 133.185 21.6328C131.349 21.6328 129.81 23.0368 129.81 25.7908Z" fill="var(--fill-0, #0C111D)"/>
</g>
</g>
</svg>
