<svg width="89" height="111" viewBox="0 0 89 111" fill="none" xmlns="http://www.w3.org/2000/svg">
<g clip-path="url(#clip0_16789_64421)">
<path d="M75.8245 73.9795V62.9495C75.8245 61.4025 75.2665 60.0983 74.1511 59.0367C73.0055 57.9448 71.6488 57.3987 70.0811 57.3987C68.5134 57.3987 67.1566 57.9448 66.011 59.0367C64.8654 60.0983 64.2925 61.4025 64.2925 62.9495V73.6156C64.2925 78.772 63.1621 83.2609 60.9009 87.0827C58.6096 90.9045 55.4893 93.877 51.5399 96.0003C47.5603 98.093 43.0228 99.1395 37.9279 99.1395C32.8327 99.1395 28.3104 98.093 24.361 96.0003C20.3814 93.877 17.2611 90.9045 15 87.0827C12.7086 83.2609 11.563 78.772 11.563 73.6156V62.9495C11.563 61.4025 11.0053 60.0983 9.88984 59.0367C8.74423 57.9448 7.3723 57.3987 5.77445 57.3987C4.20676 57.3987 2.8652 57.9448 1.74976 59.0367C0.604157 60.0983 0.03125 61.4025 0.03125 62.9495V73.9795C0.03125 80.7434 1.43314 86.6885 4.23692 91.8144C7.01054 96.9101 10.8395 101.005 15.7235 104.099C20.6076 107.193 26.6954 109.234 32.5011 109.786C38.3067 110.338 43.3544 109.786 43.3544 109.786C49.6556 109.088 55.2482 107.193 60.1322 104.099C65.0162 101.005 68.8602 96.9101 71.6639 91.8144C74.4376 86.6885 75.8245 80.7434 75.8245 73.9795ZM37.9279 90.313C41.0632 90.313 43.9423 89.5699 46.5653 88.0836C49.1883 86.5973 51.2986 84.5198 52.8964 81.8506C54.4643 79.151 55.2482 76.0116 55.2482 72.4327V41.4489C55.2482 37.8697 54.4643 34.7455 52.8964 32.0765C51.2986 29.4073 49.1883 27.3296 46.5653 25.8433C43.9423 24.3267 41.0632 23.5684 37.9279 23.5684C34.7923 23.5684 31.9132 24.3267 29.2904 25.8433C26.6674 27.3296 24.5871 29.4225 23.0496 32.1219C21.4819 34.7911 20.6981 37.9153 20.6981 41.4945V72.4327C20.6981 76.0116 21.4819 79.151 23.0496 81.8506C24.5871 84.5198 26.6674 86.5973 29.2904 88.0836C31.9132 89.5699 34.7925 90.313 37.9279 90.313Z" fill="#4835F2"/>
<path d="M66.9076 0.681152C67.2839 0.681152 67.6083 0.811576 67.8807 1.07244C68.1532 1.32025 68.3219 1.63982 68.3867 2.03111C68.7111 4.10494 69.0484 5.84619 69.3988 7.25481C69.7489 8.66345 70.2031 9.8177 70.761 10.7178C71.3059 11.6176 72.0195 12.335 72.9016 12.8698C73.7839 13.4176 74.9127 13.8546 76.2878 14.1807C77.6502 14.5197 79.3432 14.8262 81.3672 15.1002C81.7694 15.1523 82.1002 15.3154 82.3596 15.5894C82.6193 15.8762 82.749 16.2154 82.749 16.6067C82.749 16.998 82.6193 17.3307 82.3596 17.6045C82.1002 17.8913 81.7629 18.0609 81.3477 18.1132C79.3367 18.3349 77.6437 18.6022 76.2684 18.9152C74.8802 19.2283 73.7384 19.6588 72.8434 20.2066C71.9482 20.7675 71.2215 21.5043 70.6636 22.4174C70.1058 23.3304 69.6582 24.4977 69.3209 25.9194C68.9834 27.3411 68.6721 29.0953 68.3867 31.1823C68.3219 31.5736 68.1532 31.8932 67.8807 32.1408C67.6083 32.3886 67.2839 32.5127 66.9076 32.5127C66.5315 32.5127 66.2071 32.3886 65.9345 32.1408C65.6622 31.8932 65.4935 31.5736 65.4287 31.1823C65.1174 29.0953 64.7864 27.3411 64.4361 25.9194C64.0859 24.5108 63.6383 23.35 63.0934 22.4368C62.5355 21.537 61.8154 20.813 60.9332 20.2652C60.038 19.7174 58.9093 19.2806 57.547 18.9545C56.1717 18.6414 54.4722 18.3609 52.4483 18.1132C52.046 18.0478 51.7153 17.8719 51.4556 17.5848C51.1961 17.311 51.0664 16.9849 51.0664 16.6067C51.0664 16.2154 51.1961 15.8762 51.4556 15.5894C51.7153 15.3023 52.0525 15.1392 52.4677 15.1002C54.4785 14.8785 56.1783 14.6045 57.5664 14.2784C58.9418 13.9654 60.0834 13.5351 60.9917 12.9872C61.8867 12.4525 62.6068 11.722 63.1516 10.796C63.6967 9.88309 64.1443 8.71555 64.4945 7.29404C64.8318 5.85922 65.1433 4.10494 65.4287 2.03111C65.4935 1.63982 65.6622 1.32025 65.9345 1.07244C66.1942 0.811576 66.5184 0.681152 66.9076 0.681152ZM80.8417 22.4564C81.3606 22.4564 81.6526 22.737 81.7175 23.2977C81.8732 24.5759 82.0354 25.5802 82.2039 26.3107C82.3596 27.0412 82.6256 27.589 83.0019 27.9541C83.3782 28.3323 83.936 28.6129 84.6755 28.7953C85.415 28.9911 86.44 29.1866 87.7503 29.3824C88.3342 29.4737 88.6261 29.7671 88.6261 30.2626C88.6261 30.7583 88.3667 31.0517 87.8478 31.1431C86.5244 31.3909 85.4863 31.6126 84.7339 31.8084C83.9684 32.0039 83.3976 32.2844 83.0213 32.6496C82.6452 33.0147 82.3727 33.5496 82.2039 34.254C82.0354 34.9712 81.8732 35.9626 81.7175 37.2278C81.6526 37.7884 81.3606 38.069 80.8417 38.069C80.3228 38.069 80.0309 37.8015 79.9661 37.2668C79.7974 35.9495 79.6286 34.9191 79.4601 34.1757C79.2913 33.4322 79.0253 32.8713 78.6621 32.4931C78.2858 32.1279 77.7215 31.8539 76.9691 31.6712C76.2165 31.5019 75.1721 31.3257 73.8358 31.1431C73.6152 31.1171 73.4336 31.0192 73.291 30.8496C73.1351 30.6931 73.0573 30.4974 73.0573 30.2626C73.0573 29.7802 73.3104 29.4866 73.8164 29.3824C75.1656 29.1476 76.2165 28.9259 76.9691 28.7171C77.7215 28.5215 78.2858 28.241 78.6621 27.8758C79.0253 27.5107 79.2913 26.9692 79.4601 26.2521C79.6286 25.5347 79.7974 24.5369 79.9661 23.2586C79.9921 23.0239 80.0893 22.8281 80.2578 22.6716C80.4135 22.5282 80.6082 22.4564 80.8417 22.4564ZM71.3643 36.5038C71.6885 36.5038 71.8767 36.6734 71.9285 37.0124C72.0583 37.8081 72.1751 38.4276 72.2789 38.8712C72.3827 39.3146 72.5514 39.6538 72.785 39.8885C73.0054 40.1233 73.3429 40.2992 73.7968 40.4167C74.251 40.5471 74.8933 40.684 75.7235 40.8276C76.0739 40.8928 76.249 41.0818 76.249 41.3948C76.249 41.695 76.0802 41.884 75.7429 41.9623C74.9127 42.1188 74.2638 42.2622 73.7968 42.3928C73.3298 42.5231 72.986 42.6993 72.7656 42.921C72.5318 43.1557 72.3698 43.4949 72.2789 43.9383C72.1751 44.3817 72.0583 44.9884 71.9285 45.7579C71.8767 46.1099 71.6885 46.286 71.3643 46.286C71.0529 46.286 70.8713 46.1165 70.8194 45.7773C70.6897 44.9818 70.5729 44.3558 70.4691 43.8991C70.3653 43.4426 70.2031 43.0971 69.9824 42.8623C69.7489 42.6404 69.4051 42.4645 68.9512 42.3339C68.4839 42.2166 67.8353 42.0926 67.0051 41.9623C66.6678 41.8971 66.499 41.7079 66.499 41.3948C66.499 41.0818 66.6612 40.8928 66.9854 40.8276C67.8288 40.6711 68.4839 40.5275 68.9512 40.3971C69.4051 40.2667 69.7426 40.0841 69.963 39.8493C70.1837 39.6145 70.3522 39.2753 70.4691 38.8319C70.5729 38.3886 70.6897 37.7756 70.8194 36.993C70.8713 36.6669 71.0529 36.5038 71.3643 36.5038Z" fill="#B3B8FF"/>
</g>
<defs>
<clipPath id="clip0_16789_64421">
<rect width="89" height="111" fill="white"/>
</clipPath>
</defs>
</svg>
