<svg width="48" height="48" viewBox="0 0 48 48" fill="none" xmlns="http://www.w3.org/2000/svg">
<g clip-path="url(#clip0_86_15)">
<path d="M26.2402 3.68158L19.3233 19.991C19.173 20.3453 19.1801 20.7466 19.3426 21.0952L21.8696 26.5173C22.2892 27.4179 21.6319 28.4495 20.6385 28.4495H1.361C0.155178 28.4495 -0.45276 26.9952 0.39429 26.1369L24.023 2.1971C25.075 1.13119 26.8249 2.3028 26.2402 3.68158Z" fill="#21A0FC"/>
<path d="M47.6126 21.7275L22.3244 47.7296C21.2397 48.8451 19.4358 47.5566 20.1391 46.1687L29.2605 28.171C29.449 27.799 29.4561 27.3611 29.2801 26.9832L26.7645 21.5857C26.348 20.6918 26.9927 19.666 27.9788 19.6537L46.6221 19.4223C47.831 19.4072 48.4556 20.8606 47.6126 21.7275Z" fill="#134ABE"/>
</g>
<defs>
<clipPath id="clip0_86_15">
<rect width="48" height="48" fill="white"/>
</clipPath>
</defs>
</svg>
