<svg width="101" height="103" viewBox="0 0 101 103" fill="none" xmlns="http://www.w3.org/2000/svg">
<g clip-path="url(#clip0_16821_64596)">
<path d="M0 0H101V102.973H0V0Z" fill="#F6F5F6"/>
<path d="M49.8304 20.4732C52.5334 20.2339 56.811 20.5882 59.4084 21.3678C61.368 21.956 61.6542 24.1047 59.3902 25.0234C51.4227 23.297 43.9015 23.7674 36.7677 28.0324C27.0914 33.8173 21.8678 43.9462 22.7925 55.146C23.1433 59.394 24.0741 62.9786 24.2145 67.2857C24.3806 72.3801 23.8819 75.6776 22.7203 80.5646C22.1707 82.4662 21.6631 84.5392 20.6059 86.2298C19.6252 87.7981 17.1586 86.8798 17.3548 85.2158C17.484 84.1202 18.2279 82.706 18.5875 81.5986C19.1905 79.7645 19.672 77.8928 20.0291 75.9956C20.7931 71.9125 20.8872 67.7323 20.3078 63.619C19.9101 60.8144 19.3428 58.3043 19.1078 55.4369C18.6017 49.2595 19.7354 43.8417 22.4761 38.3162C23.4747 36.303 24.7474 33.9914 26.2598 32.3233C27.7476 30.6824 30.0417 28.2936 31.8146 26.9906C35.5697 24.2304 40.6111 22.0005 45.1769 21.0073C46.4699 20.726 48.5071 20.5786 49.8304 20.4732Z" fill="#FA1C4A"/>
<path d="M51.3397 43.5364C51.5511 43.528 51.7627 43.5276 51.974 43.5354C57.6694 43.7735 60.6256 48.5139 61.2148 53.747C61.5301 56.5471 63.5697 68.7391 61.8327 70.2396C61.4708 70.5543 60.9967 70.7085 60.519 70.6669C59.849 70.607 59.2765 70.1597 59.0564 69.5241C58.7506 68.6396 58.8456 65.6929 58.7528 64.6477C58.3799 60.4484 58.1505 55.941 57.1945 51.8469C56.1095 47.4159 51.3351 45.5371 47.7582 48.5838C46.2586 49.8612 45.4463 51.8011 45.708 53.7554C46.0555 56.3508 46.4946 58.9243 46.8028 61.5279C47.2804 65.4201 47.3711 69.3501 47.0736 73.2602C46.5499 80.4194 44.0707 88.1432 41.6196 94.8748C41.0861 96.3398 40.264 99.8983 37.9023 98.2915C37.5028 98.0526 37.0409 97.165 37.1882 96.6976C38.5245 92.4561 40.2239 88.2618 41.4559 83.9739C43.4177 77.1464 44.2 70.144 43.3709 63.0732C43.0254 60.1267 42.6885 57.2 42.2534 54.2639C41.6566 48.1152 45.5132 44.1158 51.3397 43.5364Z" fill="#FA1C4A"/>
<path d="M49.8723 12.7667C51.2813 12.6236 52.9605 12.7801 54.3792 12.8662C60.708 13.1981 66.6578 15.3353 72.1194 18.4861C75.3117 20.3279 77.8974 22.6182 80.5211 25.2663C89.4209 34.2489 92.0015 47.1185 92.7965 59.2858C92.7663 61.6151 89.7327 61.8868 89.3925 59.5611C88.8442 55.8116 88.4374 52.1181 87.7921 48.382C86.7823 43.6287 85.3891 38.6542 82.9833 34.385C82.0854 32.7917 80.9287 31.3448 79.8044 29.9209C78.4214 28.1695 76.7187 26.2403 74.9234 24.9055C73.3788 23.7572 71.3095 22.1089 69.6799 21.1747C62.2524 16.9168 53.1227 15.5092 44.7247 17.0067C43.4357 17.2365 41.9268 17.5349 40.6594 17.8951C39.3809 18.2843 38.0961 18.9354 36.7826 19.173C35.9914 19.316 34.926 18.4983 34.8714 17.6735C34.7614 16.0114 36.8495 15.4423 38.0639 14.9678C41.9134 13.4634 45.7865 13.0226 49.8723 12.7667Z" fill="#FA1C4A"/>
<path d="M50.8821 28.2536C57.9448 27.9943 65.8955 31.5171 70.4154 36.9216C71.2164 37.8793 72.1832 39.2101 70.8908 40.2416C70.394 40.6381 69.7188 40.9318 69.072 40.5849C67.7796 39.6138 66.7824 38.3174 65.5686 37.2084C62.1372 34.0084 57.9095 32.3993 53.2702 31.9484C41.6254 30.817 31.4861 39.1895 30.3867 50.8699C30.3133 52.8969 30.3882 54.8664 30.6523 56.8792C30.9657 59.268 31.478 61.613 31.7004 64.0179C31.9025 66.2041 32.362 73.1408 31.14 74.5666C30.8339 74.9237 30.4462 75.0871 29.981 75.1151C29.5541 75.1409 29.1194 75.0096 28.8046 74.7131C28.3009 74.2385 28.1743 73.4654 28.1865 72.8051C28.2107 71.5021 28.3489 70.1996 28.3736 68.8948C28.4094 67.0017 28.276 65.0679 28.0547 63.1883C27.6684 59.9086 26.8208 56.7023 26.6848 53.3914C26.4286 47.158 29.1171 40.4991 33.3291 35.9535C37.862 31.0615 44.2847 28.5028 50.8821 28.2536Z" fill="#FA1C4A"/>
<path d="M50.7036 35.8445C54.5087 35.5311 59.3868 37.2775 62.3221 39.6795C67.8432 44.1976 68.8615 52.093 69.6691 58.6912C71.0898 70.2995 69.8303 81.0637 66.7951 92.2593C66.3504 93.8993 65.7167 97.1815 64.7311 98.4166C62.3511 99.4237 61.739 97.4658 62.2587 95.4692C66.2878 81.2118 67.804 69.4396 65.427 54.6754C64.5721 49.3645 63.7423 45.1945 59.1187 41.7831C56.5999 39.956 53.2283 39.1178 50.1431 39.4223C49.0758 39.5277 45.6959 40.71 44.993 39.9241C42.0475 36.6308 48.8798 35.9809 50.7036 35.8445Z" fill="#FA1C4A"/>
<path d="M81.8744 64.3949C81.9216 57.2728 80.3073 46.8312 77.4095 40.2814C76.2834 37.7363 73.6284 34.306 71.65 32.3016C70.5842 31.2428 69.4318 30.2747 68.2049 29.4077C66.8499 28.4516 63.456 26.9833 65.415 24.8899C66.1345 24.1211 67.4039 24.5529 68.1827 25.0271C81.0577 32.8676 84.1734 45.7488 85.2435 59.6266C85.6155 63.9986 85.7178 68.3895 85.5498 72.7741C85.4041 76.0582 84.7479 84.6787 83.7608 87.618C83.1421 88.2074 82.9199 88.3133 82.0888 88.5224C81.2205 88.1463 80.2693 87.668 80.4174 86.5549C80.8844 83.0432 81.5877 79.5712 81.7266 76.0181C81.7506 75.4056 81.915 74.1917 81.8506 73.623C81.6687 73.0792 81.7149 64.9698 81.8744 64.3949Z" fill="#FA1C4A"/>
<path d="M81.8717 64.395C82.0897 66.1762 82.038 71.8405 81.8479 73.6232C81.666 73.0793 81.7122 64.97 81.8717 64.395Z" fill="#EDF6F8"/>
<path d="M58.4989 5.73143C58.7379 5.70005 59.1707 5.68178 59.4026 5.7168C72.0486 7.62686 83.8353 15.4867 90.909 25.8771C95.1237 32.1194 97.8183 39.2619 98.7768 46.7327C99.0165 48.6649 99.2325 51.049 99.1003 52.9874C98.7926 53.4965 98.4964 53.7939 97.9981 54.1074C95.026 54.6535 95.5262 50.8253 95.3564 48.8798C95.185 46.7702 94.8489 44.6771 94.3512 42.6197C94.0829 41.5225 93.7648 40.4383 93.4363 39.3691C88.8809 24.5353 75.9147 12.5441 60.5918 9.68115C59.6808 9.51094 58.6659 9.30851 57.8475 8.812C57.0071 7.48212 57.2142 6.57062 58.4989 5.73143Z" fill="#FA1C4A"/>
<path d="M29.2202 19.5344C30.1673 19.4685 30.9939 19.777 31.3182 20.7622C31.3598 20.8887 31.3837 21.0205 31.389 21.1536C31.4513 22.6157 28.7645 24.2394 27.669 25.091C26.4662 26.0413 25.3571 27.1045 24.3569 28.2661C17.7448 35.9355 14.3695 45.0673 15.1216 55.2193C15.3199 57.897 15.8439 60.3969 16.1956 63.0366C16.7192 66.9975 16.7438 71.0084 16.2685 74.9753C16.1065 76.3182 15.8691 78.1128 15.3075 79.3285C14.9962 80.0022 14.7338 80.188 14.0716 80.4198C10.8408 80.5244 12.1079 77.4239 12.5013 75.4119C12.7618 74.0661 12.9193 72.7024 12.9726 71.3326C13.0895 68.9726 12.99 66.6069 12.6752 64.2651C12.318 61.6581 11.722 59.0373 11.458 56.419C10.2444 44.3843 15.2247 31.7393 24.0442 23.5235C25.6957 21.985 27.1671 20.5502 29.2202 19.5344Z" fill="#FA1C4A"/>
<path d="M39.1258 41.1369C39.8201 41.057 41.0253 41.1359 41.3676 41.9151C42.028 43.4306 40.3649 45.1737 39.6048 46.4327C36.6863 51.2267 38.4577 56.4797 39.1622 61.5571C40.6407 72.2137 38.2542 83.0601 34.1779 92.896C33.7319 93.9719 33.2581 95.2654 32.1774 95.8265C30.8603 96.0667 30.2983 95.2829 29.7969 94.2028C30.0074 93.4095 30.5101 92.2384 30.8152 91.441L32.5622 86.7798C34.836 80.6164 36.0674 74.7104 36.0674 68.151C36.0674 64.8503 35.6327 61.4569 35.0251 58.239C34.3528 54.6777 34.0935 50.8811 35.3065 47.4158C35.9421 45.6 37.5344 42.2551 39.1258 41.1369Z" fill="#FA1C4A"/>
<path d="M48.2523 5.08694C49.177 4.99265 50.5427 4.99568 51.4606 5.0405C52.8553 5.97369 53.1445 7.98621 51.3765 8.5035C50.0982 8.87749 48.08 8.76207 46.6925 8.93144C44.1625 9.24024 41.6502 9.66494 39.1931 10.3643C29.9788 13.058 21.866 18.6245 16.0371 26.2522C14.2856 28.5872 13.006 30.8802 11.5989 33.4162C11.0229 34.2872 9.84049 34.6765 8.97924 33.9666C7.73987 32.945 8.69303 31.4732 9.22205 30.3565C10.6924 27.2531 12.7173 24.5361 14.9427 21.9384C19.8599 16.1132 25.8432 11.9075 32.8045 8.89927C38.1704 6.58047 42.4053 5.59996 48.2523 5.08694Z" fill="#FA1C4A"/>
<path d="M73.3233 44.3953C74.2597 44.5093 74.8589 45.0883 75.1831 45.9572C76.6118 49.7853 76.9113 53.9196 77.3434 57.9403C78.6186 69.8065 78.3034 81.7796 74.6605 93.2336C74.3585 94.1826 73.9114 94.6574 73.028 95.0424C72.3252 95.1262 71.1981 94.5119 71.1661 93.818C71.0859 92.0818 71.8349 89.937 72.2548 88.2207C73.7302 82.0402 74.4362 75.7011 74.3567 69.3475C74.3293 67.1429 74.1588 64.8409 74.0249 62.6446C73.6939 57.4068 73.2529 52.2065 71.8014 47.1417C71.383 45.6814 71.7435 44.7585 73.3233 44.3953Z" fill="#FA1C4A"/>
<path d="M50.904 50.9877C53.6299 50.8407 53.4816 54.1402 53.7949 56.1684C55.3286 65.6969 54.9836 75.4332 52.7794 84.8292C52.5464 85.781 52.3077 86.4966 51.4651 87.0109C50.3936 87.2054 49.0168 86.7635 49.11 85.4765C49.2677 83.3642 50.0125 81.4364 50.312 79.3172C51.3579 71.917 51.3537 64.5049 50.3941 57.0949C50.1921 55.535 49.6552 54.024 49.6899 52.4606C49.704 51.8248 50.5101 51.2797 50.904 50.9877Z" fill="#FA1C4A"/>
<path d="M7.04479 37.9919C8.3463 37.9651 8.74532 38.4891 9.22491 39.5875C7.79725 44.9621 6.98186 49.7022 7.34958 55.3057C7.54248 58.1019 7.98314 60.8756 8.66638 63.5939C8.98595 64.8753 9.43853 66.1633 9.70456 67.4465C9.99377 68.8413 9.55547 69.508 8.30575 69.9577C6.31678 69.8994 5.8392 67.2857 5.3966 65.6844C3.33859 58.2924 3.06937 50.5166 4.61119 42.9999C4.87261 41.7337 5.19184 39.9713 5.80506 38.8473C6.1043 38.2988 6.4718 38.1425 7.04479 37.9919Z" fill="#FA1C4A"/>
<path d="M59.6746 75.5544C60.0173 75.5423 60.3523 75.5516 60.6734 75.6838C61.1772 75.8913 61.5347 76.261 61.7367 76.7643C62.5598 78.8147 58.5572 92.8279 57.7068 95.7646C57.3913 96.8537 57.172 98.0956 56.7031 99.1239C56.447 99.6852 56.0016 99.9367 55.4461 100.153C54.6887 100.235 53.7542 99.9781 53.4217 99.2729C52.9261 98.2212 53.8769 95.8552 54.1933 94.8054C55.1706 91.5614 56.3104 88.2593 56.9859 84.9493C57.3062 83.3629 57.5977 81.7709 57.8602 80.1739C58.0299 79.1205 58.1742 77.9723 58.4388 76.9447C58.6341 76.1861 59.0122 75.9163 59.6746 75.5544Z" fill="#FA1C4A"/>
<path d="M27.9206 79.5997C29.3109 79.5052 29.7017 79.9982 30.185 81.2331C29.5898 84.134 28.3135 87.3943 27.1131 90.0983C26.7881 90.8304 26.3262 91.7488 25.5561 92.0263C24.556 92.0695 23.8048 91.8827 23.3558 90.8762C23.2373 90.6107 23.2271 90.4425 23.2997 90.157C23.726 88.4824 24.5559 86.9275 25.1251 85.2982C25.6579 83.812 26.0776 82.3334 26.611 80.8553C26.8663 80.1481 27.2616 79.8894 27.9206 79.5997Z" fill="#FA1C4A"/>
<path d="M91.4128 65.7842C92.9943 65.8207 93.3693 66.7978 93.3324 68.1912C93.2672 70.641 93.5068 73.2317 93.0426 75.6392C92.9457 76.1412 92.1632 76.6194 91.7394 76.8051C91.3891 76.8198 91.0814 76.781 90.7646 76.625C90.3985 76.4448 90.0499 76.1529 89.9235 75.7526C89.6512 74.8905 89.6844 67.2797 90.0312 66.6855C90.3375 66.1606 90.8612 65.9588 91.4128 65.7842Z" fill="#FA1C4A"/>
<path d="M48.26 91.2461C49.6977 91.2378 50.6551 92.291 50.2086 93.7271C49.682 95.4211 49.1955 97.1394 48.5455 98.7935C48.2457 99.5569 47.716 99.8548 46.9944 100.138C44.3719 100.207 44.921 97.5087 45.6059 95.9116C46.2466 94.4179 46.5219 91.8518 48.26 91.2461Z" fill="#FA1C4A"/>
</g>
<defs>
<clipPath id="clip0_16821_64596">
<rect width="101" height="102.973" fill="white"/>
</clipPath>
</defs>
</svg>
