<svg width="119" height="108" viewBox="0 0 119 108" fill="none" xmlns="http://www.w3.org/2000/svg">
<g clip-path="url(#clip0_16821_64585)">
<path d="M0 0H118.125V108H0V0Z" fill="#FEFEFE"/>
<path d="M2.78176 86.8018C2.69971 85.9608 2.74034 84.5408 2.74185 83.6701L2.74995 78.0589L2.74791 59.8945L2.75044 27.0259C2.75549 22.0092 2.74519 16.9923 2.74951 11.9758C2.75185 9.26791 3.69874 6.76257 5.68738 4.88502C7.07717 3.58498 8.83714 2.74975 10.7231 2.49521C12.924 2.20123 17.4704 2.36239 19.946 2.3744L35.6504 2.39882L64.9293 2.41879C69.7199 2.42066 75.0837 2.28892 79.8179 2.44097C86.1834 2.36054 92.6118 2.46591 98.9839 2.42835C100.151 2.42147 106.222 2.34491 106.97 2.52127C109.009 2.55534 111.322 3.70955 112.709 5.17607C115.67 8.30595 115.394 11.4142 115.386 15.3316L115.367 21.3972C115.478 24.8836 115.397 28.7649 115.397 32.2742L115.392 52.2922L115.378 75.1423C115.376 78.9232 115.456 83.0209 115.366 86.7802C115.345 88.8314 115.343 90.8828 115.358 92.9342C115.369 96.9154 115.547 99.974 112.493 102.998C109.629 105.833 106.293 105.658 102.566 105.663L96.2725 105.664L75.7848 105.669L34.0378 105.68C27.0764 105.681 20.103 105.688 13.1443 105.684C10.1413 105.683 7.50218 105.057 5.37876 102.826C2.74658 100.06 2.66034 97.3381 2.75374 93.7356C2.79417 92.1763 2.74452 90.4818 2.7788 88.9003C2.79063 88.3546 2.97488 87.2141 2.78176 86.8018Z" fill="#5FA1FF"/>
<path d="M113.054 86.8039L115.364 86.7803C115.344 88.8315 115.342 90.8829 115.357 92.9343C115.368 96.9155 115.546 99.9741 112.491 102.998C109.628 105.833 106.292 105.658 102.565 105.663L96.2714 105.664L75.7837 105.669L34.0367 105.68C27.0753 105.681 20.1019 105.688 13.1432 105.684C10.1402 105.683 7.50109 105.058 5.37768 102.826C2.7455 100.06 2.65925 97.3382 2.75266 93.7357C2.79308 92.1764 2.74344 90.4819 2.77772 88.9004C2.78955 88.3547 2.97379 87.2142 2.78068 86.8019L5.07035 86.7979L113.054 86.8039Z" fill="#C1DAFD"/>
<path d="M19.2291 91.58C24.6284 91.4453 26.7015 90.6631 26.2926 97.202C26.181 98.9862 26.2652 100.47 24.1355 100.815C22.8118 100.834 18.9204 101.073 17.7405 100.477C17.2774 100.153 16.7882 98.9781 16.8083 98.4855C16.9121 95.9349 15.7243 92.0439 19.2291 91.58Z" fill="#62A3FD"/>
<path d="M79.8159 2.44102C86.1814 2.36059 92.6098 2.46596 98.9819 2.42841C100.149 2.42152 106.22 2.34496 106.968 2.52133C106.323 2.61033 105.193 2.57497 104.506 2.56148C98.1382 2.43636 91.7973 3.0396 85.4343 2.83314C83.7483 2.77845 82.2394 2.93864 80.5277 2.81468C81.4545 2.72166 82.3896 2.7249 83.3211 2.71344C81.8729 2.59348 79.4005 2.91419 78.2609 2.78076C77.1244 2.64769 70.9989 2.87937 70.4883 2.58476C71.4589 2.58449 79.2547 2.63016 79.8159 2.44102Z" fill="#62A3FD"/>
<path d="M21.3691 16.4865C23.0408 16.2886 27.6565 16.2161 28.9071 17.3153C29.7115 17.8733 30.7333 19.2755 30.7321 20.3428C30.7272 24.4858 32.1273 29.6334 26.5642 30.47C22.9875 30.503 17.1461 31.3901 16.8189 26.0566C16.5708 22.0147 16.0402 17.0951 21.3691 16.4865Z" fill="#C1DAFD"/>
<path d="M20.9009 39.9939C24.3756 39.8177 30.4961 39.1364 30.7724 44.1392C30.8589 45.7053 30.9992 49.1411 30.6514 50.576C30.498 51.2339 30.1979 51.8485 29.7732 52.3738C29.0179 53.3062 28.0772 53.7474 26.902 53.8827C25.1567 54.159 20.2795 54.2765 18.8897 53.1435C18.0232 52.5994 16.9754 51.2065 16.9109 50.1083C16.6813 46.2008 15.7605 40.9282 20.9009 39.9939Z" fill="#C1DAFD"/>
<path d="M44.9925 16.4946C45.0119 16.4911 45.0314 16.4877 45.0508 16.4843C47.2301 16.497 50.6166 16.007 52.4257 17.3556C54.4337 18.8525 54.3808 21.1213 54.3374 23.3084C54.3129 24.5479 54.4117 25.9159 54.1395 27.0757C54.0011 27.692 53.7306 28.2708 53.3464 28.7723C52.4589 29.9261 51.3592 30.2857 49.999 30.4691C47.601 30.4902 43.8936 30.9408 41.9561 29.4043C40.1325 27.958 40.2431 25.5427 40.2553 23.4601C40.2663 21.5769 40.0895 19.5966 41.4416 18.06C42.4762 16.8587 43.4955 16.6154 44.9925 16.4946Z" fill="#C1DAFD"/>
</g>
<defs>
<clipPath id="clip0_16821_64585">
<rect width="118.125" height="108" fill="white"/>
</clipPath>
</defs>
</svg>
