<svg preserveAspectRatio="none" width="100%" height="100%" overflow="visible" style="display: block;" viewBox="0 0 18 18" fill="none" xmlns="http://www.w3.org/2000/svg">
<g id="Group">
<g id="Group_2">
<path id="Path" fill-rule="evenodd" clip-rule="evenodd" d="M2.925 11.7353L3.9735 11.8958C4.7475 12.0143 5.30025 12.7072 5.24325 13.488L5.166 14.5463C5.1435 14.8545 5.3115 15.1448 5.58975 15.279L6.36525 15.6525C6.6435 15.7867 6.97575 15.7365 7.203 15.5272L7.98225 14.8073C8.55675 14.2763 9.44325 14.2763 10.0185 14.8073L10.7978 15.5272C11.025 15.7372 11.3565 15.7867 11.6355 15.6525L12.4125 15.2783C12.69 15.1448 12.8573 14.8553 12.8348 14.5478L12.7575 13.488C12.7005 12.7072 13.2533 12.0143 14.0273 11.8958L15.0758 11.7353C15.381 11.6888 15.627 11.46 15.696 11.1585L15.8872 10.32C15.9562 10.0185 15.834 9.70575 15.579 9.53175L14.7038 8.9325C14.058 8.49 13.8608 7.626 14.2508 6.94725L14.7795 6.02775C14.9333 5.76 14.9078 5.42475 14.715 5.18325L14.1788 4.5105C13.986 4.269 13.665 4.16925 13.3695 4.26L12.3555 4.5705C11.6063 4.8 10.8075 4.41525 10.5195 3.687L10.131 2.70225C10.017 2.41425 9.73875 2.22525 9.429 2.226L8.5695 2.22825C8.25975 2.229 7.98225 2.4195 7.86975 2.70825L7.491 3.68175C7.206 4.4145 6.4035 4.80225 5.652 4.57125L4.596 4.24725C4.29975 4.15575 3.97725 4.25625 3.7845 4.49925L3.252 5.17275C3.05925 5.4165 3.036 5.7525 3.19275 6.02025L3.7335 6.942C4.13175 7.6215 3.93675 8.49375 3.28725 8.9385L2.4225 9.531C2.1675 9.70575 2.04525 10.0185 2.11425 10.3193L2.3055 11.1578C2.37375 11.46 2.61975 11.6888 2.925 11.7353V11.7353Z" stroke="var(--stroke-0, white)" stroke-width="1.125" stroke-linecap="round" stroke-linejoin="round"/>
<path id="Path_2" d="M10.437 7.563C11.2305 8.3565 11.2305 9.6435 10.437 10.437C9.6435 11.2305 8.3565 11.2305 7.563 10.437C6.7695 9.6435 6.7695 8.3565 7.563 7.563C8.3565 6.7695 9.6435 6.7695 10.437 7.563" stroke="var(--stroke-0, white)" stroke-width="1.125" stroke-linecap="round" stroke-linejoin="round"/>
</g>
<g id="Path_3">
</g>
</g>
</svg>
