<svg width="128" height="30" viewBox="0 0 128 30" fill="none" xmlns="http://www.w3.org/2000/svg">
<path d="M16.2214 1.86549L11.9437 11.9518C11.8508 12.1708 11.8552 12.4189 11.9557 12.6346L13.5184 15.9878C13.778 16.5446 13.3714 17.1826 12.7571 17.1826L0.835333 17.1826C0.089619 17.1826 -0.286348 16.2833 0.237492 15.7525L14.8502 0.947445C15.5008 0.288261 16.583 1.01282 16.2214 1.86549Z" fill="#21A0FC"/>
<path d="M29.4386 13.0256L13.7997 29.1061C13.1288 29.7959 12.0133 28.999 12.4483 28.1407L18.0891 17.0104C18.2057 16.7804 18.2102 16.5096 18.1013 16.2758L16.5456 12.9379C16.288 12.3851 16.6867 11.7507 17.2966 11.7431L28.826 11.6C29.5737 11.5907 29.96 12.4895 29.4386 13.0256Z" fill="#134ABE"/>
<path d="M37.1926 22.6946L37.1926 7.37299L39.959 7.37299L39.959 22.6946L37.1926 22.6946ZM38.5119 22.6946L38.5119 20.5028L47.4921 20.5028L47.4921 22.6946L38.5119 22.6946Z" fill="#134ABE"/>
<path d="M48.205 22.6946L48.205 11.8418L50.8863 11.8418L50.8863 22.6946L48.205 22.6946ZM48.0773 10.0543L48.0773 7.09635L50.9927 7.09635L50.9927 10.0543L48.0773 10.0543Z" fill="#134ABE"/>
<path d="M57.3524 27.2698C55.9195 27.2698 54.742 26.9577 53.8199 26.3335C52.912 25.7093 52.3729 24.8652 52.2026 23.8012L54.7562 23.8012C54.8839 24.17 55.1606 24.4537 55.5862 24.6524C56.0259 24.8652 56.5934 24.9716 57.2886 24.9716C58.2958 24.9716 59.0406 24.7446 59.5229 24.2906C60.0053 23.8508 60.2465 23.1769 60.2465 22.269L60.2465 19.9282L60.438 19.9708C60.2678 20.7652 59.8351 21.4036 59.1399 21.886C58.4448 22.3541 57.5936 22.5882 56.5863 22.5882C55.6216 22.5882 54.7775 22.3612 54.054 21.9072C53.3447 21.4533 52.7914 20.822 52.3942 20.0133C51.9969 19.1905 51.7983 18.2329 51.7983 17.1405C51.7983 16.034 52.004 15.0693 52.4154 14.2464C52.8268 13.4236 53.4014 12.7852 54.1391 12.3312C54.891 11.8631 55.7635 11.629 56.7566 11.629C57.778 11.629 58.615 11.8773 59.2676 12.3738C59.9344 12.8561 60.3458 13.53 60.5018 14.3954L60.3316 14.4167L60.3316 11.8418L62.949 11.8418L62.949 22.2477C62.949 23.7941 62.4454 25.0141 61.4382 25.9079C60.4451 26.8158 59.0832 27.2698 57.3524 27.2698ZM57.4588 20.4602C58.3242 20.4602 59.0122 20.1694 59.5229 19.5877C60.0479 18.9919 60.3103 18.162 60.3103 17.098C60.3103 16.034 60.0479 15.2111 59.5229 14.6295C58.998 14.0478 58.3029 13.757 57.4375 13.757C56.5863 13.757 55.8983 14.0549 55.3734 14.6508C54.8484 15.2324 54.586 16.0552 54.586 17.1192C54.586 18.1832 54.8484 19.0061 55.3734 19.5877C55.8983 20.1694 56.5934 20.4602 57.4588 20.4602Z" fill="#134ABE"/>
<path d="M64.7385 22.6946L64.7385 7.37299L67.4198 7.37299L67.4198 22.6946L64.7385 22.6946ZM72.3568 22.6946L72.3568 15.8424C72.3568 15.1757 72.1866 14.672 71.8461 14.3316C71.5056 13.9911 71.0091 13.8208 70.3565 13.8208C69.789 13.8208 69.2783 13.9485 68.8243 14.2039C68.3845 14.4592 68.0369 14.8139 67.7816 15.2679C67.5404 15.7218 67.4198 16.2468 67.4198 16.8426L67.1432 14.2464C67.512 13.452 68.0511 12.8207 68.7605 12.3525C69.4698 11.8702 70.321 11.629 71.3141 11.629C72.4916 11.629 73.4066 11.9624 74.0592 12.6292C74.726 13.2959 75.0593 14.1826 75.0593 15.2892L75.0593 22.6946L72.3568 22.6946Z" fill="#134ABE"/>
<path d="M81.1827 22.9074C79.8491 22.9074 78.8632 22.5953 78.2247 21.9711C77.6005 21.3327 77.2884 20.3822 77.2884 19.1196L77.2884 9.37331L79.991 8.37315L79.991 19.1834C79.991 19.7083 80.1329 20.0984 80.4166 20.3538C80.7003 20.6092 81.1472 20.7368 81.7572 20.7368C81.9984 20.7368 82.2112 20.7226 82.3956 20.6943C82.5942 20.6517 82.7787 20.6021 82.9489 20.5453L82.9489 22.6308C82.7787 22.7159 82.5375 22.7797 82.2254 22.8223C81.9133 22.879 81.5657 22.9074 81.1827 22.9074ZM75.203 13.9485L75.203 11.8418L82.9489 11.8418L82.9489 13.9485L75.203 13.9485Z" fill="#134ABE"/>
<path d="M84.8872 22.6946L84.8872 10.8416C84.8872 9.64995 85.2135 8.74201 85.8661 8.11779C86.5329 7.47939 87.5259 7.16019 88.8453 7.16019C89.1432 7.16019 89.3915 7.17438 89.5901 7.20275C89.7887 7.23113 89.9802 7.27369 90.1647 7.33043L90.1647 9.41587C90.0654 9.37331 89.9377 9.34494 89.7816 9.33075C89.6256 9.30238 89.4482 9.28819 89.2496 9.28819C88.6822 9.28819 88.2566 9.43006 87.9728 9.71379C87.7033 9.98334 87.5685 10.3806 87.5685 10.9055L87.5685 22.6946L84.8872 22.6946ZM82.9295 13.9485L82.9295 11.8418L89.9306 11.8418L89.9306 13.9485L82.9295 13.9485Z" fill="#134ABE"/>
<path d="M95.3071 22.9074C94.158 22.9074 93.1436 22.6662 92.2641 22.1839C91.3987 21.7015 90.7248 21.0348 90.2425 20.1836C89.7601 19.3182 89.5189 18.3322 89.5189 17.2256C89.5189 16.1191 89.7601 15.1473 90.2425 14.3103C90.7248 13.4733 91.3987 12.8207 92.2641 12.3525C93.1436 11.8702 94.158 11.629 95.3071 11.629C96.4704 11.629 97.4848 11.8702 98.3501 12.3525C99.2155 12.8207 99.8894 13.4733 100.372 14.3103C100.854 15.1473 101.095 16.1191 101.095 17.2256C101.095 18.3322 100.847 19.3182 100.35 20.1836C99.8681 21.0348 99.1942 21.7015 98.3289 22.1839C97.4635 22.6662 96.4562 22.9074 95.3071 22.9074ZM95.3071 20.7581C95.8746 20.7581 96.3853 20.6162 96.8393 20.3325C97.2932 20.0346 97.6479 19.6232 97.9033 19.0983C98.1586 18.5592 98.2863 17.9279 98.2863 17.2044C98.2863 16.1404 98.0026 15.3033 97.4351 14.6933C96.8818 14.0833 96.1725 13.7783 95.3071 13.7783C94.4417 13.7783 93.7253 14.0833 93.1578 14.6933C92.5904 15.3033 92.3066 16.1404 92.3066 17.2044C92.3066 17.9279 92.4343 18.5592 92.6897 19.0983C92.9592 19.6232 93.3139 20.0346 93.7537 20.3325C94.2076 20.6162 94.7254 20.7581 95.3071 20.7581Z" fill="#134ABE"/>
<path d="M102.003 22.6946L102.003 11.8418L104.621 11.8418L104.621 14.4592L104.685 14.4592L104.685 22.6946L102.003 22.6946ZM104.685 17.0341L104.408 14.4592C104.663 13.5371 105.096 12.8349 105.706 12.3525C106.316 11.8702 107.047 11.629 107.898 11.629C108.196 11.629 108.409 11.6574 108.536 11.7141L108.536 14.2464C108.466 14.2181 108.366 14.2039 108.239 14.2039C108.111 14.1897 107.955 14.1826 107.77 14.1826C106.735 14.1826 105.962 14.4096 105.451 14.8636C104.94 15.3175 104.685 16.041 104.685 17.0341Z" fill="#134ABE"/>
<path d="M114.374 22.9074C113.041 22.9074 112.055 22.5953 111.417 21.9711C110.792 21.3327 110.48 20.3822 110.48 19.1196L110.48 9.37331L113.183 8.37315L113.183 19.1834C113.183 19.7083 113.325 20.0984 113.608 20.3538C113.892 20.6092 114.339 20.7368 114.949 20.7368C115.19 20.7368 115.403 20.7226 115.587 20.6943C115.786 20.6517 115.97 20.6021 116.141 20.5453L116.141 22.6308C115.97 22.7159 115.729 22.7797 115.417 22.8223C115.105 22.879 114.758 22.9074 114.374 22.9074ZM108.395 13.9485L108.395 11.8418L116.141 11.8418L116.141 13.9485L108.395 13.9485Z" fill="#134ABE"/>
<path d="M117.082 22.6946L117.082 7.37299L119.764 7.37299L119.764 22.6946L117.082 22.6946ZM124.701 22.6946L124.701 15.8424C124.701 15.1757 124.53 14.672 124.19 14.3316C123.849 13.9911 123.353 13.8208 122.7 13.8208C122.133 13.8208 121.622 13.9485 121.168 14.2039C120.728 14.4592 120.381 14.8139 120.125 15.2679C119.884 15.7218 119.764 16.2468 119.764 16.8426L119.487 14.2464C119.856 13.452 120.395 12.8207 121.104 12.3525C121.814 11.8702 122.665 11.629 123.658 11.629C124.835 11.629 125.75 11.9624 126.403 12.6292C127.07 13.2959 127.403 14.1826 127.403 15.2892L127.403 22.6946L124.701 22.6946Z" fill="#134ABE"/>
</svg>
