<svg width="49" height="48" viewBox="0 0 49 48" fill="none" xmlns="http://www.w3.org/2000/svg">
<circle cx="28.8758" cy="27.6429" r="20.1004" fill="#1149A6"/>
<path d="M22.5 38.6875C18.2068 38.6875 14.0895 36.982 11.0537 33.9463C8.01796 30.9105 6.3125 26.7932 6.3125 22.5C6.3125 18.2068 8.01796 14.0895 11.0537 11.0537C14.0895 8.01796 18.2068 6.3125 22.5 6.3125C26.7932 6.3125 30.9105 8.01796 33.9463 11.0537C36.982 14.0895 38.6875 18.2068 38.6875 22.5C38.6875 26.7932 36.982 30.9105 33.9463 33.9463C30.9105 36.982 26.7932 38.6875 22.5 38.6875ZM22.5 41C27.4065 41 32.1121 39.0509 35.5815 35.5815C39.0509 32.1121 41 27.4065 41 22.5C41 17.5935 39.0509 12.8879 35.5815 9.41852C32.1121 5.9491 27.4065 4 22.5 4C17.5935 4 12.8879 5.9491 9.41852 9.41852C5.9491 12.8879 4 17.5935 4 22.5C4 27.4065 5.9491 32.1121 9.41852 35.5815C12.8879 39.0509 17.5935 41 22.5 41Z" fill="#22DF72"/>
<path d="M13.9091 26.1237C14.1747 25.9704 14.4903 25.9288 14.7865 26.0082C15.0827 26.0875 15.3353 26.2813 15.4886 26.5469C16.1991 27.7776 17.2212 28.7995 18.452 29.5099C19.6828 30.2203 21.079 30.5941 22.5001 30.5938C23.9212 30.5941 25.3173 30.2203 26.5482 29.5099C27.779 28.7995 28.801 27.7776 29.5116 26.5469C29.587 26.4143 29.6878 26.298 29.8083 26.2045C29.9288 26.1111 30.0666 26.0425 30.2138 26.0025C30.3609 25.9625 30.5146 25.9521 30.6658 25.9718C30.817 25.9914 30.9628 26.0408 31.0949 26.117C31.2269 26.1933 31.3426 26.2949 31.4352 26.416C31.5278 26.5371 31.5956 26.6754 31.6346 26.8228C31.6735 26.9702 31.683 27.1239 31.6623 27.275C31.6417 27.4261 31.5913 27.5716 31.5142 27.7031C30.6007 29.2854 29.2867 30.5992 27.7044 31.5126C26.122 32.4259 24.3271 32.9066 22.5001 32.9062C20.6731 32.9066 18.8781 32.4259 17.2958 31.5126C15.7135 30.5992 14.3995 29.2854 13.486 27.7031C13.3326 27.4376 13.2911 27.122 13.3705 26.8258C13.4498 26.5296 13.6436 26.277 13.9091 26.1237ZM20.1876 19.0312C20.1876 20.946 19.1516 22.5 17.8751 22.5C16.5986 22.5 15.5626 20.946 15.5626 19.0312C15.5626 17.1165 16.5986 15.5625 17.8751 15.5625C19.1516 15.5625 20.1876 17.1165 20.1876 19.0312ZM29.4376 19.0312C29.4376 20.946 28.4016 22.5 27.1251 22.5C25.8486 22.5 24.8126 20.946 24.8126 19.0312C24.8126 17.1165 25.8486 15.5625 27.1251 15.5625C28.4016 15.5625 29.4376 17.1165 29.4376 19.0312Z" fill="#22DF72"/>
</svg>
