<svg width="148" height="32" viewBox="0 0 148 32" fill="none" xmlns="http://www.w3.org/2000/svg">
<path fill-rule="evenodd" clip-rule="evenodd" d="M15.3571 0.282118H32.9626C33.1992 0.282118 33.3927 0.475684 33.3927 0.712287V17.3217C33.3927 17.5583 33.1992 17.7519 32.9626 17.7519H26.2688V7.83636C26.2688 7.59975 26.0752 7.40619 25.8386 7.40619H14.9271V0.712287C14.9271 0.475684 15.1206 0.282118 15.3572 0.282118H15.3571Z" fill="#0A2A60"/>
<path fill-rule="evenodd" clip-rule="evenodd" d="M8.23322 7.40625H14.9563C14.9563 7.40625 26.2687 17.7519 26.2687 17.647V24.4458C26.2687 24.6824 26.0751 24.876 25.8385 24.876H19.1446V14.9605C19.1446 14.7238 18.9511 14.5303 18.7145 14.5303H7.80295V7.83642C7.80295 7.59982 7.99651 7.40625 8.23312 7.40625H8.23322Z" fill="#0A2A60"/>
<path fill-rule="evenodd" clip-rule="evenodd" d="M1.10909 14.5304H7.83214C7.83214 14.5304 19.1446 24.876 19.1446 24.7711V31.57C19.1446 31.8067 18.951 32.0001 18.7144 32.0001H12.0205V22.0845C12.0205 21.8479 11.8271 21.6543 11.5903 21.6543H0.678818V14.9605C0.678818 14.7238 0.872383 14.5304 1.10899 14.5304H1.10909Z" fill="#0A2A60"/>
<path d="M53.6094 22H45.9531V10.2812H48.3594V19.8984H53.6094V22ZM54.8906 22V10.2812H57.2969V22H54.8906ZM67.6719 13.2266C67.3281 12.8828 66.9167 12.6172 66.4375 12.4297C65.9635 12.2422 65.4557 12.1484 64.9141 12.1484C64.3724 12.1484 63.8776 12.2422 63.4297 12.4297C62.9818 12.6172 62.5964 12.8854 62.2734 13.2344C61.9505 13.5833 61.7005 14 61.5234 14.4844C61.3464 14.9635 61.2578 15.5 61.2578 16.0938C61.2578 16.6875 61.3464 17.2318 61.5234 17.7266C61.7057 18.2214 61.9609 18.6484 62.2891 19.0078C62.6224 19.362 63.0156 19.638 63.4688 19.8359C63.9271 20.0339 64.4323 20.1328 64.9844 20.1328C65.4427 20.1328 65.862 20.0625 66.2422 19.9219C66.6276 19.7812 66.9661 19.5807 67.2578 19.3203C67.5495 19.0599 67.7891 18.7448 67.9766 18.375C68.1693 18.0052 68.3021 17.5911 68.375 17.1328H64.9766V15.2969H70.4922L70.5625 16.2031C70.5625 17.0938 70.4245 17.9089 70.1484 18.6484C69.8776 19.388 69.4922 20.026 68.9922 20.5625C68.4922 21.0938 67.8958 21.5052 67.2031 21.7969C66.5156 22.0885 65.7526 22.2344 64.9141 22.2344C64.0443 22.2344 63.237 22.0807 62.4922 21.7734C61.7526 21.4661 61.1042 21.0365 60.5469 20.4844C59.9948 19.9323 59.5651 19.2865 59.2578 18.5469C58.9505 17.8021 58.7969 16.9974 58.7969 16.1328C58.7969 15.2682 58.9479 14.4688 59.25 13.7344C59.5573 12.9948 59.9844 12.349 60.5312 11.7969C61.0833 11.2448 61.7266 10.8151 62.4609 10.5078C63.1953 10.2005 63.9948 10.0469 64.8594 10.0469C65.6667 10.0469 66.4479 10.1875 67.2031 10.4688C67.9583 10.75 68.6328 11.151 69.2266 11.6719L67.6719 13.2266ZM74.4688 22H72.0625V10.2812H74.4688V15.1797H79.5391V10.2812H81.9453V22H79.5391V17.2812H74.4688V22ZM88.9219 22H86.5156V12.3828H83.0625V10.2812H92.3828V12.3828H88.9219V22ZM93.5 22V10.2812H100.828V12.3828H95.9062V15.0469H100.508V17.1562H95.9062V22H93.5ZM108.422 22.2344C107.531 22.2344 106.708 22.0833 105.953 21.7812C105.203 21.474 104.549 21.0469 103.992 20.5C103.44 19.9479 103.01 19.3021 102.703 18.5625C102.401 17.8229 102.25 17.0156 102.25 16.1406C102.25 15.2656 102.401 14.4583 102.703 13.7188C103.01 12.974 103.44 12.3281 103.992 11.7812C104.549 11.2292 105.203 10.8021 105.953 10.5C106.708 10.1979 107.531 10.0469 108.422 10.0469C109.312 10.0469 110.133 10.2005 110.883 10.5078C111.633 10.8099 112.281 11.2344 112.828 11.7812C113.38 12.3281 113.81 12.9714 114.117 13.7109C114.424 14.4505 114.578 15.2604 114.578 16.1406C114.578 17.0156 114.424 17.8255 114.117 18.5703C113.815 19.3099 113.388 19.9531 112.836 20.5C112.284 21.0469 111.633 21.474 110.883 21.7812C110.133 22.0833 109.312 22.2344 108.422 22.2344ZM108.422 20.1328C108.948 20.1328 109.435 20.0312 109.883 19.8281C110.336 19.625 110.729 19.3438 111.062 18.9844C111.396 18.6198 111.654 18.1979 111.836 17.7188C112.023 17.2344 112.117 16.7083 112.117 16.1406C112.117 15.5729 112.023 15.0469 111.836 14.5625C111.654 14.0781 111.396 13.6562 111.062 13.2969C110.729 12.9323 110.336 12.651 109.883 12.4531C109.435 12.25 108.948 12.1484 108.422 12.1484C107.891 12.1484 107.398 12.25 106.945 12.4531C106.497 12.651 106.104 12.9323 105.766 13.2969C105.432 13.6562 105.172 14.0781 104.984 14.5625C104.802 15.0469 104.711 15.5729 104.711 16.1406C104.711 16.7083 104.802 17.2344 104.984 17.7188C105.172 18.2031 105.432 18.6276 105.766 18.9922C106.104 19.3516 106.497 19.6328 106.945 19.8359C107.398 20.0339 107.891 20.1328 108.422 20.1328ZM125.844 22H123.18L120.719 17.7656H118.484V22H116.078V10.2812H120.828C121.771 10.2812 122.578 10.4297 123.25 10.7266C123.922 11.0234 124.435 11.4531 124.789 12.0156C125.148 12.5729 125.328 13.2422 125.328 14.0234C125.328 14.8255 125.138 15.5104 124.758 16.0781C124.383 16.6406 123.846 17.0625 123.148 17.3438L125.844 22ZM118.484 15.8516H120.648C121.362 15.8516 121.909 15.7031 122.289 15.4062C122.674 15.1042 122.867 14.6745 122.867 14.1172C122.867 13.5599 122.674 13.1328 122.289 12.8359C121.909 12.5339 121.362 12.3828 120.648 12.3828H118.484V15.8516ZM131.953 22H129.547V12.3828H126.094V10.2812H135.414V12.3828H131.953V22ZM138.938 22H136.531V10.2812H138.938V15.1797H144.008V10.2812H146.414V22H144.008V17.2812H138.938V22Z" fill="#1A1A1A"/>
</svg>
