<svg width="143" height="32" viewBox="0 0 143 32" fill="none" xmlns="http://www.w3.org/2000/svg">
<path d="M18.1085 1.31016L13.3351 12.5654C13.2314 12.8099 13.2363 13.0868 13.3484 13.3274L15.0923 17.0692C15.3819 17.6907 14.9283 18.4026 14.2427 18.4026L0.939232 18.4026C0.107089 18.4026 -0.312452 17.399 0.272101 16.8067L16.5784 0.285714C17.3044 -0.44987 18.512 0.358661 18.1085 1.31016Z" fill="#21A0FC"/>
<path d="M32.8577 13.7637L15.4062 31.7079C14.6576 32.4777 13.4127 31.5885 13.8981 30.6307L20.1928 18.2104C20.3229 17.9537 20.3278 17.6515 20.2063 17.3907L18.4703 13.6659C18.1829 13.049 18.6278 12.3411 19.3083 12.3326L32.1741 12.1729C33.0084 12.1625 33.4394 13.1655 32.8577 13.7637Z" fill="#134ABE"/>
<path d="M41.5103 24.5534L41.5103 7.45599L44.5974 7.45599L44.5974 24.5534L41.5103 24.5534ZM42.9826 24.5534L42.9826 22.1075L53.0036 22.1075L53.0036 24.5534L42.9826 24.5534Z" fill="#134ABE"/>
<path d="M53.7991 24.5534L53.7991 12.4427L56.7911 12.4427L56.7911 24.5534L53.7991 24.5534ZM53.6566 10.448L53.6566 7.14729L56.9098 7.14729L56.9098 10.448L53.6566 10.448Z" fill="#134ABE"/>
<path d="M64.0067 29.6589C62.4077 29.6589 61.0938 29.3106 60.0648 28.614C59.0516 27.9175 58.45 26.9755 58.2601 25.7882L61.1096 25.7882C61.2521 26.1998 61.5608 26.5164 62.0357 26.738C62.5265 26.9755 63.1597 27.0942 63.9354 27.0942C65.0594 27.0942 65.8905 26.841 66.4288 26.3344C66.967 25.8436 67.2362 25.0916 67.2362 24.0785L67.2362 21.4664L67.4499 21.5138C67.2599 22.4004 66.7771 23.1128 66.0014 23.651C65.2257 24.1734 64.2758 24.4347 63.1518 24.4347C62.0753 24.4347 61.1334 24.1814 60.326 23.6748C59.5344 23.1682 58.917 22.4637 58.4738 21.5613C58.0305 20.6431 57.8089 19.5746 57.8089 18.3556C57.8089 17.1208 58.0384 16.0443 58.4975 15.1261C58.9566 14.2079 59.5978 13.4955 60.421 12.9889C61.26 12.4665 62.2336 12.2053 63.3418 12.2053C64.4816 12.2053 65.4156 12.4823 66.1439 13.0364C66.8879 13.5746 67.347 14.3266 67.5211 15.2923L67.3312 15.316L67.3312 12.4427L70.252 12.4427L70.252 24.0547C70.252 25.7803 69.69 27.1417 68.566 28.1391C67.4578 29.1523 65.938 29.6589 64.0067 29.6589ZM64.1254 22.06C65.0911 22.06 65.8589 21.7355 66.4288 21.0864C67.0145 20.4215 67.3074 19.4954 67.3074 18.3081C67.3074 17.1208 67.0145 16.2026 66.4288 15.5535C65.8431 14.9044 65.0673 14.5799 64.1017 14.5799C63.1518 14.5799 62.384 14.9124 61.7983 15.5773C61.2125 16.2263 60.9196 17.1445 60.9196 18.3318C60.9196 19.5191 61.2125 20.4373 61.7983 21.0864C62.384 21.7355 63.1597 22.06 64.1254 22.06Z" fill="#134ABE"/>
<path d="M72.2489 24.5534L72.2489 7.45599L75.2409 7.45599L75.2409 24.5534L72.2489 24.5534ZM80.7501 24.5534L80.7501 16.907C80.7501 16.163 80.5601 15.601 80.1802 15.2211C79.8002 14.8411 79.2462 14.6511 78.5179 14.6511C77.8847 14.6511 77.3148 14.7936 76.8082 15.0786C76.3174 15.3635 75.9296 15.7593 75.6446 16.2659C75.3755 16.7725 75.2409 17.3582 75.2409 18.0231L74.9322 15.1261C75.3438 14.2395 75.9454 13.5351 76.737 13.0126C77.5285 12.4744 78.4784 12.2053 79.5865 12.2053C80.9005 12.2053 81.9216 12.5773 82.6498 13.3213C83.3939 14.0654 83.7659 15.0548 83.7659 16.2896L83.7659 24.5534L80.7501 24.5534Z" fill="#134ABE"/>
<path d="M90.5989 24.7908C89.1108 24.7908 88.0105 24.4426 87.2982 23.746C86.6016 23.0336 86.2533 21.9729 86.2533 20.564L86.2533 9.68815L89.2691 8.57207L89.2691 20.6352C89.2691 21.221 89.4274 21.6563 89.744 21.9413C90.0607 22.2262 90.5593 22.3687 91.2401 22.3687C91.5092 22.3687 91.7466 22.3529 91.9524 22.3212C92.1741 22.2737 92.3799 22.2183 92.5699 22.155L92.5699 24.4821C92.3799 24.5771 92.1107 24.6484 91.7625 24.6959C91.4142 24.7592 91.0263 24.7908 90.5989 24.7908ZM83.9262 14.7936L83.9262 12.4427L92.5699 12.4427L92.5699 14.7936L83.9262 14.7936Z" fill="#134ABE"/>
<path d="M94.7328 24.5534L94.7328 11.3266C94.7328 9.99685 95.0969 8.98367 95.8251 8.28711C96.5692 7.57472 97.6774 7.21853 99.1496 7.21853C99.4821 7.21853 99.7591 7.23436 99.9808 7.26602C100.202 7.29768 100.416 7.34517 100.622 7.4085L100.622 9.73564C100.511 9.68815 100.369 9.65649 100.194 9.64066C100.02 9.60899 99.8225 9.59316 99.6008 9.59316C98.9676 9.59316 98.4927 9.75147 98.176 10.0681C97.8752 10.3689 97.7249 10.8121 97.7249 11.3979L97.7249 24.5534L94.7328 24.5534ZM92.5481 14.7936L92.5481 12.4427L100.361 12.4427L100.361 14.7936L92.5481 14.7936Z" fill="#134ABE"/>
<path d="M106.36 24.7908C105.078 24.7908 103.946 24.5217 102.965 23.9835C101.999 23.4452 101.247 22.7012 100.709 21.7513C100.17 20.7856 99.9014 19.6854 99.9014 18.4506C99.9014 17.2158 100.17 16.1313 100.709 15.1973C101.247 14.2633 101.999 13.5351 102.965 13.0126C103.946 12.4744 105.078 12.2053 106.36 12.2053C107.659 12.2053 108.79 12.4744 109.756 13.0126C110.722 13.5351 111.474 14.2633 112.012 15.1973C112.55 16.1313 112.819 17.2158 112.819 18.4506C112.819 19.6854 112.542 20.7856 111.988 21.7513C111.45 22.7012 110.698 23.4452 109.732 23.9835C108.767 24.5217 107.643 24.7908 106.36 24.7908ZM106.36 22.3925C106.994 22.3925 107.564 22.2342 108.07 21.9175C108.577 21.5851 108.972 21.126 109.257 20.5402C109.542 19.9387 109.685 19.2342 109.685 18.4268C109.685 17.2395 109.368 16.3055 108.735 15.6247C108.118 14.944 107.326 14.6036 106.36 14.6036C105.395 14.6036 104.595 14.944 103.962 15.6247C103.329 16.3055 103.012 17.2395 103.012 18.4268C103.012 19.2342 103.155 19.9387 103.44 20.5402C103.74 21.126 104.136 21.5851 104.627 21.9175C105.133 22.2342 105.711 22.3925 106.36 22.3925Z" fill="#134ABE"/>
<path d="M113.833 24.5534L113.833 12.4427L116.754 12.4427L116.754 15.3635L116.825 15.3635L116.825 24.5534L113.833 24.5534ZM116.825 18.2368L116.516 15.3635C116.801 14.3345 117.284 13.5509 117.965 13.0126C118.645 12.4744 119.461 12.2053 120.411 12.2053C120.743 12.2053 120.981 12.2369 121.123 12.3003L121.123 15.1261C121.044 15.0944 120.933 15.0786 120.791 15.0786C120.648 15.0627 120.474 15.0548 120.268 15.0548C119.112 15.0548 118.25 15.3081 117.68 15.8147C117.11 16.3213 116.825 17.1287 116.825 18.2368Z" fill="#134ABE"/>
<path d="M127.638 24.7908C126.15 24.7908 125.049 24.4426 124.337 23.746C123.64 23.0336 123.292 21.9729 123.292 20.564L123.292 9.68815L126.308 8.57207L126.308 20.6352C126.308 21.221 126.466 21.6563 126.783 21.9413C127.099 22.2262 127.598 22.3687 128.279 22.3687C128.548 22.3687 128.785 22.3529 128.991 22.3212C129.213 22.2737 129.419 22.2183 129.609 22.155L129.609 24.4821C129.419 24.5771 129.15 24.6484 128.801 24.6959C128.453 24.7592 128.065 24.7908 127.638 24.7908ZM120.965 14.7936L120.965 12.4427L129.609 12.4427L129.609 14.7936L120.965 14.7936Z" fill="#134ABE"/>
<path d="M130.659 24.5534L130.659 7.45599L133.651 7.45599L133.651 24.5534L130.659 24.5534ZM139.161 24.5534L139.161 16.907C139.161 16.163 138.971 15.601 138.591 15.2211C138.211 14.8411 137.657 14.6511 136.928 14.6511C136.295 14.6511 135.725 14.7936 135.219 15.0786C134.728 15.3635 134.34 15.7593 134.055 16.2659C133.786 16.7725 133.651 17.3582 133.651 18.0231L133.343 15.1261C133.754 14.2395 134.356 13.5351 135.147 13.0126C135.939 12.4744 136.889 12.2053 137.997 12.2053C139.311 12.2053 140.332 12.5773 141.06 13.3213C141.804 14.0654 142.176 15.0548 142.176 16.2896L142.176 24.5534L139.161 24.5534Z" fill="#134ABE"/>
</svg>
