<svg width="24" height="24" viewBox="0 0 24 24" fill="none" xmlns="http://www.w3.org/2000/svg">
<g clip-path="url(#clip0_286_73955)">
<path d="M1.05362 9.45942C1.26859 4.15284 5.59103 0 10.9073 0C16.2175 0 20.5615 4.21795 20.7643 9.47986C21.4449 10.8121 22.6718 13.3129 22.728 13.4274C23.046 14.0619 23.0579 14.8091 22.7555 15.4655C22.4543 16.1201 21.88 16.5966 21.1801 16.7717L20.7308 16.8844C20.5128 17.8681 20.1852 19.3509 20.0825 19.8222C19.6957 21.6022 18.7607 22.3617 16.9561 22.3617C16.7062 22.3617 16.4518 22.3468 16.2041 22.3226V22.4766V24H14.6807H5.74422H4.22083V22.4766V19.3492C4.22083 18.3301 3.9062 17.3419 3.37956 16.7059C1.21093 14.0887 0.915621 11.3261 1.05362 9.45942ZM4.55265 15.7341C5.43259 16.7963 5.74426 18.2167 5.74426 19.3492V22.4766H14.6807V20.5006C14.6807 20.5006 15.9133 20.8383 16.9562 20.8383C17.9983 20.8383 18.3546 20.5995 18.5941 19.4979C18.7525 18.7704 19.4469 15.6351 19.4469 15.6351L20.81 15.294C21.0581 15.232 21.2649 15.0608 21.372 14.828C21.4791 14.5956 21.475 14.3271 21.3605 14.0983C21.3605 14.0983 19.8698 11.0597 19.2483 9.86287C19.2476 5.25703 15.5135 1.5233 10.9073 1.5233C6.4074 1.5233 2.74215 5.08739 2.57476 9.54633C2.43901 11.3138 2.78303 13.5985 4.55265 15.7341Z" fill="white"/>
<path d="M17.2137 13.3125L15.7137 10.6875C15.6387 10.575 15.5262 10.5 15.3762 10.5H12.3762C12.2262 10.5 12.1137 10.575 12.0387 10.6875L10.5387 13.3125C10.4637 13.425 10.4637 13.575 10.5387 13.6875L12.0387 16.3125C12.1137 16.425 12.2262 16.5 12.3762 16.5H15.3762C15.5262 16.5 15.6387 16.425 15.7137 16.3125L17.2137 13.6875C17.2887 13.575 17.2887 13.425 17.2137 13.3125ZM13.8762 15.375C12.8262 15.375 12.0012 14.55 12.0012 13.5C12.0012 12.45 12.8262 11.625 13.8762 11.625C14.9262 11.625 15.7512 12.45 15.7512 13.5C15.7512 14.55 14.9262 15.375 13.8762 15.375Z" fill="white"/>
<path d="M11.8484 9.5625L10.7609 7.6875C10.7234 7.575 10.5734 7.5 10.4609 7.5H8.28594C8.17344 7.5 8.02344 7.575 7.94844 7.6875L6.86094 9.5625C6.78594 9.675 6.78594 9.825 6.86094 9.9375L7.94844 11.8125C8.02344 11.925 8.17344 12 8.28594 12H10.4609C10.6109 12 10.7234 11.925 10.7984 11.8125L11.8859 9.9375C11.9234 9.825 11.9234 9.675 11.8484 9.5625ZM9.37344 10.875C8.73594 10.875 8.24844 10.3875 8.24844 9.75C8.24844 9.1125 8.73594 8.625 9.37344 8.625C10.0109 8.625 10.4984 9.1125 10.4984 9.75C10.4984 10.3875 10.0109 10.875 9.37344 10.875Z" fill="white"/>
</g>
<defs>
<clipPath id="clip0_286_73955">
<rect width="24" height="24" fill="white" transform="matrix(-1 0 0 1 24 0)"/>
</clipPath>
</defs>
</svg>
