<svg width="54" height="60" viewBox="0 0 54 60" fill="none" xmlns="http://www.w3.org/2000/svg">
<circle cx="28.8991" cy="34.3" r="24.8" fill="#1149A6"/>
<path d="M37 26.3077L29.5641 33.7436L24.359 28.5385L26.5897 26.3077L29.5641 29.2821L34.7692 24.0769L37 26.3077ZM10.9744 4C10.1855 4 9.42897 4.31337 8.87117 4.87117C8.31337 5.42897 8 6.18551 8 6.97436V30.7692C8 32.42 9.32359 33.7436 10.9744 33.7436H22.5892C22.0538 32.8215 21.6821 31.8103 21.5036 30.7692H10.9744V6.97436H21.3846V14.4103H28.8205V20.4779C29.3113 20.4036 29.8169 20.359 30.3077 20.359C30.8133 20.359 31.3041 20.4036 31.7949 20.4779V12.9231L22.8718 4M13.9487 18.8718V21.8462H25.8462V18.8718M13.9487 24.8205V27.7949H21.3846V24.8205H13.9487Z" fill="#22DF72"/>
</svg>
