<svg width="64" height="59" viewBox="0 0 64 59" fill="none" xmlns="http://www.w3.org/2000/svg">
<circle cx="38.8991" cy="34.1301" r="24.8" fill="#1149A6"/>
<path d="M19.2001 20.4C19.2001 20.0818 19.0737 19.7766 18.8486 19.5515C18.6236 19.3265 18.3184 19.2 18.0001 19.2C17.6818 19.2 17.3766 19.3265 17.1516 19.5515C16.9265 19.7766 16.8001 20.0818 16.8001 20.4V37.2001C16.8001 37.5183 16.9265 37.8235 17.1516 38.0486C17.3766 38.2736 17.6818 38.4001 18.0001 38.4001C18.3184 38.4001 18.6236 38.2736 18.8486 38.0486C19.0737 37.8235 19.2001 37.5183 19.2001 37.2001V20.4ZM24.0001 28.8C24.3184 28.8 24.6236 28.9265 24.8486 29.1515C25.0737 29.3766 25.2001 29.6818 25.2001 30V37.2001C25.2001 37.5183 25.0737 37.8235 24.8486 38.0486C24.6236 38.2736 24.3184 38.4001 24.0001 38.4001C23.6818 38.4001 23.3766 38.2736 23.1516 38.0486C22.9265 37.8235 22.8001 37.5183 22.8001 37.2001V30C22.8001 29.6818 22.9265 29.3766 23.1516 29.1515C23.3766 28.9265 23.6818 28.8 24.0001 28.8ZM31.2001 25.2001C31.2001 24.8818 31.0737 24.5766 30.8486 24.3515C30.6236 24.1265 30.3184 24 30.0001 24C29.6818 24 29.3766 24.1265 29.1516 24.3515C28.9265 24.5766 28.8001 24.8818 28.8001 25.2001V37.2001C28.8001 37.5183 28.9265 37.8235 29.1516 38.0486C29.3766 38.2736 29.6818 38.4001 30.0001 38.4001C30.3184 38.4001 30.6236 38.2736 30.8486 38.0486C31.0737 37.8235 31.2001 37.5183 31.2001 37.2001V25.2001ZM9.6001 9.60005C9.6001 8.32701 10.1058 7.10611 11.006 6.20594C11.9062 5.30576 13.1271 4.80005 14.4001 4.80005H25.4065C26.361 4.80089 27.276 5.18073 27.9505 5.85605L37.3465 15.2496C38.0209 15.9245 38.3999 16.8395 38.4001 17.7936V38.4001C38.4001 39.6731 37.8944 40.894 36.9942 41.7942C36.094 42.6943 34.8731 43.2001 33.6001 43.2001H14.4001C13.1271 43.2001 11.9062 42.6943 11.006 41.7942C10.1058 40.894 9.6001 39.6731 9.6001 38.4001V9.60005ZM14.4001 7.20005C13.7636 7.20005 13.1531 7.45291 12.703 7.90299C12.253 8.35308 12.0001 8.96353 12.0001 9.60005V38.4001C12.0001 39.0366 12.253 39.647 12.703 40.0971C13.1531 40.5472 13.7636 40.8 14.4001 40.8H33.6001C34.2366 40.8 34.8471 40.5472 35.2972 40.0971C35.7472 39.647 36.0001 39.0366 36.0001 38.4001V19.2H27.6001C26.6453 19.2 25.7296 18.8208 25.0545 18.1456C24.3794 17.4705 24.0001 16.5548 24.0001 15.6V7.20005H14.4001ZM27.6001 16.8H35.5033L26.4001 7.69685V15.6C26.4001 15.9183 26.5265 16.2235 26.7516 16.4486C26.9766 16.6736 27.2818 16.8 27.6001 16.8Z" fill="#22DF72"/>
</svg>
