<svg width="60" height="66" viewBox="0 0 60 66" fill="none" xmlns="http://www.w3.org/2000/svg">
<ellipse cx="35.2" cy="40.6351" rx="24.8001" ry="25.1351" fill="#1149A6"/>
<path d="M27.308 42V37.58L37.974 26.966C38.1713 26.7927 38.3747 26.666 38.584 26.586C38.7933 26.506 39.0033 26.4647 39.214 26.462C39.4433 26.462 39.6687 26.5047 39.89 26.59C40.11 26.6767 40.3107 26.806 40.492 26.978L42.342 28.866C42.506 29.0633 42.6313 29.2687 42.718 29.482C42.8033 29.694 42.846 29.9067 42.846 30.12C42.846 30.3333 42.8053 30.548 42.724 30.764C42.6427 30.98 42.516 31.1867 42.344 31.384L31.726 42H27.308ZM29.078 40.232H30.978L37.912 33.284L37.012 32.296L36.062 31.356L29.076 38.332L29.078 40.232ZM13.23 42C12.3087 42 11.54 41.692 10.924 41.076C10.308 40.46 10 39.6913 10 38.77V9.23C10 8.31 10.3087 7.542 10.926 6.926C11.5433 6.31 12.312 6.00133 13.232 6H29L38 15V20.192H36V16H28V8H13.232C12.924 8 12.6413 8.128 12.384 8.384C12.1267 8.64 11.9987 8.922 12 9.23V38.77C12 39.0767 12.128 39.3587 12.384 39.616C12.64 39.8733 12.922 40.0013 13.23 40H22.538V42H13.23ZM37.01 32.296L36.062 31.356L37.912 33.284L37.01 32.296Z" fill="#22DF72"/>
</svg>
