<svg width="16" height="17" viewBox="0 0 16 17" fill="none" xmlns="http://www.w3.org/2000/svg">
<path d="M2 8.12085C2 8.90878 2.15519 9.689 2.45672 10.417C2.75825 11.1449 3.20021 11.8063 3.75736 12.3635C4.31451 12.9206 4.97595 13.3626 5.7039 13.6641C6.43185 13.9657 7.21207 14.1208 8 14.1208C8.78793 14.1208 9.56815 13.9657 10.2961 13.6641C11.0241 13.3626 11.6855 12.9206 12.2426 12.3635C12.7998 11.8063 13.2417 11.1449 13.5433 10.417C13.8448 9.689 14 8.90878 14 8.12085C14 7.33292 13.8448 6.5527 13.5433 5.82475C13.2417 5.0968 12.7998 4.43536 12.2426 3.87821C11.6855 3.32106 11.0241 2.8791 10.2961 2.57757C9.56815 2.27604 8.78793 2.12085 8 2.12085C7.21207 2.12085 6.43185 2.27604 5.7039 2.57757C4.97595 2.8791 4.31451 3.32106 3.75736 3.87821C3.20021 4.43536 2.75825 5.0968 2.45672 5.82475C2.15519 6.5527 2 7.33292 2 8.12085Z" stroke="#06B6D4" stroke-width="1.33333" stroke-linecap="round" stroke-linejoin="round"/>
<path d="M9.86667 6.12079C9.7459 5.9113 9.57043 5.73859 9.35905 5.62116C9.14768 5.50373 8.90834 5.44599 8.66667 5.45412H7.33333C6.97971 5.45412 6.64057 5.5946 6.39052 5.84465C6.14048 6.0947 6 6.43384 6 6.78746C6 7.14108 6.14048 7.48022 6.39052 7.73027C6.64057 7.98031 6.97971 8.12079 7.33333 8.12079H8.66667C9.02029 8.12079 9.35943 8.26127 9.60948 8.51132C9.85952 8.76136 10 9.1005 10 9.45412C10 9.80775 9.85952 10.1469 9.60948 10.3969C9.35943 10.647 9.02029 10.7875 8.66667 10.7875H7.33333C7.09166 10.7956 6.85232 10.7379 6.64095 10.6204C6.42957 10.503 6.2541 10.3303 6.13333 10.1208" stroke="#06B6D4" stroke-width="1.33333" stroke-linecap="round" stroke-linejoin="round"/>
<path d="M8 4.7876V11.4543" stroke="#06B6D4" stroke-width="1.33333" stroke-linecap="round" stroke-linejoin="round"/>
</svg>
