<svg width="14" height="15" viewBox="0 0 14 15" fill="none" xmlns="http://www.w3.org/2000/svg">
<path d="M2.78059 2.45878L7.94259 7.62078L6.99992 8.56344L4.70259 6.26611C4.40748 6.76647 4.28383 7.3495 4.35043 7.92657C4.41703 8.50364 4.67025 9.04318 5.07158 9.46316C5.47291 9.88314 6.0004 10.1606 6.57385 10.2533C7.1473 10.346 7.73535 10.249 8.24859 9.97687C8.76182 9.70477 9.17217 9.27253 9.41724 8.74585C9.66232 8.21918 9.72871 7.62688 9.60632 7.05902C9.48394 6.49116 9.17948 5.97879 8.73922 5.59981C8.29897 5.22083 7.74701 4.99598 7.16725 4.95944L5.96392 3.75611C6.87342 3.51221 7.8398 3.597 8.69293 3.99553C9.54607 4.39406 10.2313 5.0808 10.6279 5.93483C11.0245 6.78886 11.1071 7.75543 10.8611 8.66437C10.6152 9.57331 10.0565 10.3664 9.28331 10.9039C8.51017 11.4414 7.57219 11.6889 6.6345 11.6029C5.69681 11.5168 4.81953 11.1028 4.15711 10.4335C3.4947 9.76429 3.08961 8.88282 3.01318 7.9443C2.93674 7.00577 3.19386 6.07037 3.73926 5.30278L2.78659 4.35011C1.99158 5.37501 1.59732 6.65451 1.67761 7.94912C1.7579 9.24373 2.30724 10.4647 3.22279 11.3835C4.13835 12.3023 5.35737 12.856 6.65169 12.9409C7.94601 13.0258 9.2269 12.6361 10.2546 11.8447C11.2823 11.0533 11.9864 9.91455 12.2351 8.64151C12.4838 7.36848 12.26 6.04845 11.6057 4.92849C10.9513 3.80854 9.91127 2.96543 8.68016 2.55698C7.44905 2.14853 6.11129 2.20273 4.91726 2.70944L3.91592 1.70878C4.86774 1.21146 5.92601 0.952492 6.99992 0.954109C10.6819 0.954109 13.6666 3.93878 13.6666 7.62078C13.6666 11.3028 10.6819 14.2874 6.99992 14.2874C3.31792 14.2874 0.333255 11.3028 0.333255 7.62078C0.33225 6.63261 0.55137 5.65663 0.974697 4.76374C1.39802 3.87084 2.01493 3.08346 2.78059 2.45878V2.45878Z" fill="#06B6D4"/>
</svg>
