<svg width="39" height="40" viewBox="0 0 39 40" fill="none" xmlns="http://www.w3.org/2000/svg">
<line x1="31.1305" y1="27.1378" x2="6.91853" y2="13.159" stroke="url(#paint0_linear_1909_3947)" stroke-width="0.282648"/>
<line x1="12.0397" y1="32.0932" x2="26.0185" y2="7.88118" stroke="url(#paint1_linear_1909_3947)" stroke-width="0.282648"/>
<path d="M15.5722 18.1019C17.502 18.8776 19.7271 18.2814 21.0106 16.6447C20.2348 18.5745 20.8311 20.7996 22.4678 22.0831C20.5379 21.3073 18.3128 21.9035 17.0294 23.5403C17.8051 21.6104 17.2089 19.3853 15.5722 18.1019Z" fill="#0494FC"/>
<path d="M15.5722 18.1019C17.502 18.8776 19.7271 18.2814 21.0106 16.6447C20.2348 18.5745 20.8311 20.7996 22.4678 22.0831C20.5379 21.3073 18.3128 21.9035 17.0294 23.5403C17.8051 21.6104 17.2089 19.3853 15.5722 18.1019Z" fill="url(#paint2_linear_1909_3947)"/>
<path d="M15.5722 18.1019C17.502 18.8776 19.7271 18.2814 21.0106 16.6447C20.2348 18.5745 20.8311 20.7996 22.4678 22.0831C20.5379 21.3073 18.3128 21.9035 17.0294 23.5403C17.8051 21.6104 17.2089 19.3853 15.5722 18.1019Z" stroke="url(#paint3_linear_1909_3947)" stroke-width="0.0942161"/>
<defs>
<linearGradient id="paint0_linear_1909_3947" x1="7.23919" y1="12.6036" x2="31.4512" y2="26.5824" gradientUnits="userSpaceOnUse">
<stop stop-color="white" stop-opacity="0"/>
<stop offset="0.275" stop-color="#A7C3FF"/>
<stop offset="0.5" stop-color="#DAE6FF"/>
<stop offset="0.74" stop-color="#95B6FF"/>
<stop offset="1" stop-color="white" stop-opacity="0"/>
</linearGradient>
<linearGradient id="paint1_linear_1909_3947" x1="26.5739" y1="8.20184" x2="12.5951" y2="32.4138" gradientUnits="userSpaceOnUse">
<stop stop-color="white" stop-opacity="0"/>
<stop offset="0.275" stop-color="#A7C3FF"/>
<stop offset="0.5" stop-color="#DAE6FF"/>
<stop offset="0.74" stop-color="#95B6FF"/>
<stop offset="1" stop-color="white" stop-opacity="0"/>
</linearGradient>
<linearGradient id="paint2_linear_1909_3947" x1="21.3444" y1="16.0664" x2="16.6955" y2="24.1185" gradientUnits="userSpaceOnUse">
<stop stop-color="white" stop-opacity="0"/>
<stop offset="1" stop-color="white"/>
</linearGradient>
<linearGradient id="paint3_linear_1909_3947" x1="23.0461" y1="22.4169" x2="14.9939" y2="17.768" gradientUnits="userSpaceOnUse">
<stop stop-color="white" stop-opacity="0"/>
<stop offset="0.275" stop-color="#A7C3FF"/>
<stop offset="0.5" stop-color="#DAE6FF"/>
<stop offset="0.74" stop-color="#95B6FF"/>
<stop offset="1" stop-color="white" stop-opacity="0"/>
</linearGradient>
</defs>
</svg>
