<svg width="227" height="144" viewBox="0 0 227 144" fill="none" xmlns="http://www.w3.org/2000/svg">
<rect width="183" height="143" transform="translate(22 0.840332)" fill="white"/>
<g opacity="0.2">
<path d="M55.5112 14.6793C52.8735 13.4389 48.5113 15.4557 47.1204 18.407C44.4653 24.0409 53.0526 32.2001 56.1755 31.3243C59.6652 30.3457 60.3541 16.9567 55.5112 14.6793Z" stroke="#0F31AC" stroke-width="0.953903" stroke-miterlimit="10" stroke-linecap="round" stroke-dasharray="2.38 2.38 2.38 2.38 2.38 2.38"/>
<path d="M42.3179 27.4392C41.3765 26.8947 31.405 21.1265 25.7618 25.6916C21.7995 28.8969 21.7616 35.7483 24.7392 39.5991C30.6366 47.2257 48.924 43.8064 50.8214 38.3492C52.0992 34.6742 46.1001 29.6271 42.3179 27.4392Z" stroke="#0F31AC" stroke-width="0.953903" stroke-miterlimit="10" stroke-linecap="round" stroke-dasharray="2.38 2.38 2.38 2.38 2.38 2.38"/>
<path d="M55.1614 124.166C79.4277 119.491 107.001 114.731 149.816 115.542C173.761 115.995 179.187 110.227 197.334 103.055C213.509 96.6636 221.454 83.9532 216.575 76.7497C211.649 69.4772 196.645 72.3726 184.358 61.5471C178.762 56.6166 179.747 53.1609 176.516 47.6933C166.285 30.3809 127.94 16.8491 109.032 24.0105C84.0512 33.4713 105.407 74.35 77.4836 85.5168C59.8207 92.5808 46.4703 79.0202 29.0301 89.3719C20.3886 94.5011 9.8198 101.696 9.00244 109.508C9.00244 109.508 7.858 128.608 55.1614 124.166Z" stroke="#0F31AC" stroke-width="0.953903" stroke-miterlimit="10" stroke-linecap="round" stroke-dasharray="2.38 2.38 2.38 2.38 2.38 2.38"/>
<path d="M189.26 101.908C189.26 101.908 184.863 106.432 180.466 112.639C176.502 118.236 173.487 125.779 172.821 132.076C170.954 132.007 168.903 131.943 166.686 131.882C153.554 131.52 134.596 131.294 113.516 131.294C89.5507 131.294 68.3285 131.587 55.2915 132.038C54.8427 132.053 54.4035 132.069 53.9742 132.085C37.6979 116.428 4.92247 89.1498 35.0848 77.9283C35.0848 77.9283 37.2944 77.406 40.6072 76.2841C51.0921 72.7325 72.6381 63.1755 70.2415 45.156C70.2415 45.156 69.425 41.7936 69.425 37.1148C69.425 26.1746 73.8877 8.04004 103.681 8.8677C121.723 9.36963 138.339 16.4951 148.384 27.9002C158.238 39.0866 173.993 52.85 186.823 44.9924C189.785 43.1779 193.701 42.5057 197.357 43.3034C206.593 45.3167 217.084 55.7391 189.26 101.908Z" fill="#ACBCF8"/>
</g>
<path opacity="0.15" d="M227 133.34C227 134.721 176.184 135.84 113.5 135.84C78.1312 135.84 46.5411 135.484 25.7253 134.925C20.9308 134.797 16.7085 134.657 13.1433 134.509C10.7949 134.412 8.73165 134.31 6.97763 134.205C2.46478 133.936 0 133.645 0 133.34C0 132.953 4.00048 132.586 11.1406 132.259C14.0647 132.125 17.515 131.997 21.4328 131.878C42.0476 131.25 75.6052 130.84 113.5 130.84C146.833 130.84 176.81 131.157 197.575 131.661C215.859 132.105 227 132.694 227 133.34Z" fill="#040C2B"/>
<path d="M199.411 26.896C200.649 28.7094 200.182 31.1828 198.369 32.4203L170.445 51.2684L140.712 44.8898L114.198 62.3495L86.6018 56.4294L58.3995 75.4765L53.9497 68.8879L84.9583 47.9453L112.608 53.8769L139.122 36.4172L168.779 42.7796L193.887 25.8533C195.7 24.6157 198.174 25.0826 199.411 26.896Z" fill="#C40000"/>
<path fill-rule="evenodd" clip-rule="evenodd" d="M49.2292 87.615L32.0008 88.9561L39.4536 73.3653L46.9064 57.7744L56.6821 72.0242L66.4577 86.274L49.2292 87.615Z" fill="#C40000"/>
<path d="M40.0424 77.6157C40.0424 77.6157 36.5491 88.7463 34.46 88.8833C34.46 88.8833 41.8918 88.1299 40.0424 77.6157Z" fill="black"/>
<path d="M47.7997 81.8804L47.2518 84.5175L45.6445 84.5534L42.6625 84.6202L41.4639 83.2161C41.6471 83.0178 41.7807 82.6205 41.8782 82.1232C41.9645 81.6818 42.0224 81.1612 42.0605 80.6304C42.1721 79.0735 42.1146 77.4282 42.1146 77.4282L46.2928 78.7639C46.4298 80.7502 47.7997 81.8804 47.7997 81.8804Z" fill="#C9885B"/>
<path opacity="0.15" d="M47.7997 81.8785C47.7997 81.8785 46.9757 83.2656 45.4561 83.5241C45.4059 83.116 45.3879 82.7446 45.385 82.4387C45.3816 82.0708 45.056 81.8946 44.6924 81.8382C43.2961 81.6217 42.8301 81.0467 42.2344 80.4915C42.1601 80.4223 41.7861 79.5651 41.7207 79.4983C41.8323 77.9414 42.1146 77.4263 42.1146 77.4263L46.2928 78.762C46.4298 80.7483 47.7997 81.8785 47.7997 81.8785Z" fill="black"/>
<path d="M41.7717 74.4826C41.7717 74.4826 39.9922 79.8541 44.0942 81.1581C44.271 81.2142 44.4611 81.2117 44.6369 81.1526C45.3924 80.8985 47.3209 79.8591 47.1829 75.8868C47.1829 75.8868 45.4363 69.7221 41.7717 74.4826Z" fill="#DB965F"/>
<path d="M49.7516 110.579L48.1762 118.182L46.3611 130.888L44.4008 132.024L43.998 132.258C43.998 132.258 44.5279 126.37 44.1138 123.465C44.0121 122.75 43.9868 122.026 44.058 121.307C44.1162 120.72 44.2255 120.042 44.4289 119.422C44.6552 118.73 44.7707 118.007 44.7522 117.28L44.6368 112.786L44.5803 110.579H49.7516V110.579Z" fill="#DB965F"/>
<path opacity="0.15" d="M44.7161 123.279C44.731 125.867 44.7032 129.641 44.4442 131.13L44.4017 132.026L43.999 132.26C43.999 132.26 44.5289 126.372 44.1148 123.467C44.0131 122.752 43.9877 122.028 44.0589 121.309C44.1172 120.722 44.2264 120.045 44.4299 119.424C44.6562 118.733 44.7717 118.01 44.7532 117.282L44.6378 112.789L45.6429 112.362C45.6429 112.362 45.9111 115.458 45.1926 118.792C44.8746 120.267 44.7075 121.77 44.7161 123.279Z" fill="black"/>
<path d="M42.4915 122.941C41.0968 126.103 40.8027 128.365 40.8252 129.773C40.839 130.639 40.0368 131.287 39.1951 131.085C38.4956 130.918 38.0579 130.222 38.2098 129.519L38.6421 127.518C38.7811 126.874 38.8509 126.218 38.8544 125.559C38.8786 121.018 39.7529 119.13 40.2323 118.434C40.5464 117.979 40.7552 117.466 41.0093 116.974C41.4808 116.062 41.4996 115.279 41.4676 114.887C41.4553 114.738 41.4175 114.592 41.3561 114.455L40.5588 112.678C40.2563 112.004 40.5648 111.212 41.2437 110.921L43.5377 109.936C44.4331 109.551 45.4229 110.234 45.3813 111.208L45.2062 115.305C45.155 116.503 44.8743 117.681 44.3793 118.774L42.4915 122.941Z" fill="#DB965F"/>
<path d="M38.3865 128.7C38.3865 128.7 36.9769 129.964 37.6277 131.916C37.6277 131.916 38.3811 132.704 38.5181 133.32C38.5181 133.32 39.006 134.557 42.3281 134.175C42.5234 134.153 42.6854 134.014 42.7384 133.825C42.8337 133.485 42.8607 132.872 42.3539 131.985C42.3539 131.985 41.0182 129.93 40.847 129.074C40.847 129.074 38.4262 130.278 38.3865 128.7Z" fill="#040C2B"/>
<path d="M44.191 129.385C44.191 129.385 43.2701 131.329 43.4845 132.662C43.5206 132.886 43.7001 133.06 43.9252 133.091C44.6341 133.19 46.2719 133.44 47.012 133.731C47.012 133.731 49.1968 134.091 50.204 133.808C50.4418 133.742 50.6047 133.521 50.5957 133.274C50.5816 132.886 50.4406 132.271 49.7518 131.916L46.543 129.616C46.543 129.616 44.3495 130.759 44.191 129.385Z" fill="#040C2B"/>
<path d="M50.0845 82.6377L50.0749 82.8984L49.9026 87.666L49.8601 88.8442L49.6974 93.3379L39.9433 94.3259L39.5491 94.3656L39.523 94.3683L39.547 93.6919L39.6145 91.7771C39.6491 91.4545 39.6728 91.137 39.6874 90.825C39.7573 89.3243 39.6107 87.9536 39.3802 86.7858C39.0723 85.2261 38.6144 84.0274 38.3213 83.3606C38.3603 83.3298 38.3816 83.3179 38.3816 83.3179L38.9775 83.1134L39.4405 82.9545L41.8748 82.1191C41.8759 82.1202 41.8772 82.1212 41.8782 82.1222C43.3156 83.4144 44.5184 83.6846 45.4561 83.525C46.9757 83.2664 47.7997 81.8794 47.7997 81.8794L49.2593 82.3661L49.6833 82.5072L49.7518 82.5301C49.8014 82.5435 49.8501 82.5578 49.898 82.5733C49.9619 82.5932 50.0242 82.6147 50.0845 82.6377Z" fill="white"/>
<path d="M52.3202 94.3799L50.8253 95.1488L50.0602 95.5423L49.9229 95.6128L49.9413 95.2358L49.9701 94.6607L50.0383 93.2768L50.2506 88.9859L50.3167 87.6502L51.6695 87.2563L52.1654 92.6867L52.264 93.7642L52.3202 94.3799Z" fill="#DB965F"/>
<path d="M61.8565 90.586C61.3644 91.6018 59.227 92.5566 59.227 92.5566L52.6318 96.901C52.2092 97.1795 51.7113 97.225 51.2749 97.0815C50.8465 96.9415 50.4773 96.6188 50.2979 96.1551L50.0605 95.5431L49.9417 95.2366L49.752 94.7468L49.9705 94.6615L50.6883 94.3807L52.2644 93.765L55.8999 92.344C56.5516 91.9957 57.1763 91.4333 57.5619 91.0505C57.7708 90.8429 57.9551 90.6111 58.1034 90.3566C58.4051 89.8402 58.8329 89.3405 59.1849 88.9699C59.5373 88.5994 59.8141 88.3579 59.8141 88.3579C59.9959 88.5367 60.0117 88.8247 59.8497 89.0219L59.1771 89.8425L60.06 89.3217C60.359 89.1453 60.7032 89.0552 61.0494 89.0758C62.3456 89.1527 61.8565 90.586 61.8565 90.586Z" fill="#DB965F"/>
<path d="M53.9652 92.1876L52.1665 92.6863L50.5192 93.1431L50.0394 93.2763L49.8897 93.3178L49.6982 93.3373L49.8657 88.7066L50.0852 82.6372C51.9391 83.3417 52.1843 85.3038 52.1843 85.3038L53.9652 92.1876Z" fill="white"/>
<path opacity="0.15" d="M51.2757 97.0811C50.8473 96.9411 50.4781 96.6184 50.2986 96.1548L50.0613 95.5427L49.924 95.6133L49.9425 95.2362L49.7527 94.7465L49.9713 94.6612L50.0394 93.2772L49.8897 93.3186L49.6982 93.3382L49.8657 88.7075L50.2517 88.9863L50.489 89.1575C50.489 89.1575 50.2407 90.6343 50.5192 93.144C50.562 93.5317 50.6178 93.9444 50.6891 94.3804C50.7295 94.629 50.775 94.8856 50.8264 95.1493C50.9442 95.7561 51.0918 96.4013 51.2757 97.0811Z" fill="black"/>
<path d="M51.2248 102.055C51.2246 102.052 51.2246 102.05 51.2246 102.047C51.2236 99.0632 50.1012 94.254 50.0295 93.9495C50.0271 93.9392 50.026 93.9288 50.0262 93.9182C50.0841 90.1395 50.0433 88.2651 50.0298 87.7903C50.0279 87.7213 49.9717 87.6664 49.9027 87.6656L49.6835 87.6631V82.5068L49.2595 82.3657L49.454 87.6652C49.4436 87.6679 49.4334 87.6718 49.4239 87.6771C48.1609 88.3864 46.9191 90.239 46.3966 91.086C46.2711 91.2895 45.9806 91.3027 45.8356 91.1125C43.9692 88.6633 42.8006 88.2377 42.2289 88.2261C42.0945 87.7046 41.3406 85.0485 39.4405 82.9541L38.9775 83.113C38.9775 83.113 40.2995 83.934 41.8064 88.3177L41.8065 88.3181C41.8046 88.3196 41.8025 88.3208 41.8005 88.3224C40.7921 89.1439 40.2122 89.9044 39.884 90.4589C39.8046 90.5938 39.7398 90.7164 39.6874 90.8247C39.5542 91.1006 39.5008 91.2844 39.4857 91.3424C39.4825 91.3549 39.4812 91.3677 39.4818 91.3806C39.52 92.1789 39.5402 92.9524 39.547 93.6916C39.5491 93.9193 39.5497 94.144 39.5491 94.3652C39.5474 95.4615 39.5169 96.4718 39.4734 97.3636C39.407 98.7199 39.3104 99.8028 39.2371 100.498C39.1642 101.193 39.119 101.89 39.1022 102.589C38.9057 110.744 39.3442 112.878 39.4536 113.276C39.4665 113.323 39.5047 113.359 39.5526 113.368C43.3597 114.106 49.8967 113.19 50.7818 113.06C50.8407 113.051 50.8858 113.003 50.8911 112.944C51.4857 106.236 51.2335 102.189 51.2248 102.055Z" fill="#040C2B"/>
<path opacity="0.15" d="M50.0747 82.8982L49.9025 87.6659L49.86 88.844L49.0839 88.5063C46.9469 87.794 46.0277 86.0905 45.6444 84.5524C45.5557 84.1962 45.4958 83.849 45.4561 83.525C46.9756 83.2664 47.7997 81.8794 47.7997 81.8794L49.2593 82.3661L49.6833 82.5072L49.7517 82.5301C49.8014 82.5435 49.8501 82.5578 49.898 82.5733C49.9151 82.6048 49.9326 82.636 49.9497 82.6668C49.9926 82.7434 50.0344 82.8205 50.0747 82.8982Z" fill="black"/>
<path opacity="0.15" d="M39.9429 94.3259C39.8796 95.3835 39.7364 96.4277 39.473 97.364C39.5165 96.4722 39.547 95.4619 39.5487 94.3656L39.5227 94.3683L39.5467 93.6919C39.5398 92.947 39.5193 92.1672 39.4806 91.3624C39.4806 91.3624 39.5241 91.1627 39.6871 90.825C39.757 89.3243 39.6104 87.9536 39.3799 86.7858L39.6655 86.52C39.6655 86.52 40.5091 88.54 40.0422 90.6298C39.7831 91.7902 40.0227 92.9957 39.9429 94.3259Z" fill="black"/>
<path d="M42.5205 98.3642L54.381 97.7368L54.5029 100.04L45.4746 100.321L42.5205 98.3642Z" fill="#1A1A1A"/>
<path d="M58.9912 99.6555L46.5184 100.315C46.1055 100.337 45.8377 100.069 45.9202 99.7161L47.6392 92.3672C47.7217 92.0144 48.1233 91.7108 48.5362 91.6889L61.0089 91.0291C61.4218 91.0072 61.6896 91.2755 61.6071 91.6283L59.8882 98.9772C59.8057 99.33 59.4041 99.6337 58.9912 99.6555Z" fill="#0F31AC"/>
<path d="M59.2978 99.982L45.7898 100.697L45.751 99.9614L59.817 99.2173L59.8263 99.3944C59.8426 99.7026 59.606 99.9657 59.2978 99.982Z" fill="#0B2581"/>
<path d="M45.7505 99.9623L42.5205 98.3638L42.5542 99.0009L45.7894 100.697L45.7505 99.9623Z" fill="#949494"/>
<path d="M37.1069 87.6587L33.0081 93.2682C32.3915 94.1121 32.6364 95.3036 33.5358 95.8359L36.8627 91.5041L37.1069 87.6587Z" fill="#DB965F"/>
<path d="M35.0258 92.8872L35.2105 93.0318L35.8178 93.5066L37.1504 94.5494L40.2247 96.9543C40.8564 97.3378 41.6585 97.589 42.1844 97.7259C42.4694 97.8 42.7628 97.8405 43.0573 97.8386C43.6554 97.8352 44.3033 97.9488 44.8015 98.0631C45.2999 98.1777 45.6486 98.2929 45.6486 98.2929C45.5873 98.5404 45.3475 98.7006 45.0952 98.6617L44.0465 98.5008L44.9444 98.9953C45.2484 99.1628 45.5012 99.4132 45.6599 99.7216C46.2538 100.876 45.2832 100.905 45.2832 100.905C44.1584 100.998 41.7362 99.9261 41.7362 99.9261L34.6386 96.4629L33.5361 95.836L35.0258 92.8872Z" fill="#DB965F"/>
<path d="M33.5303 92.1373L36.6641 86.8791C37.9019 84.4448 38.1122 83.4305 38.365 83.2993C38.6744 84.6519 41.3029 87.2058 39.3582 91.7586L37.817 94.8409L33.536 92.2038" fill="white"/>
<path d="M53.211 90.0649C52.3812 90.0526 51.3942 89.6368 50.4729 89.1111C48.8465 88.184 47.4231 86.9141 47.4231 86.9141C46.7053 86.1401 46.2793 85.3233 46.0395 84.5438C45.3981 82.4605 46.0875 80.6467 46.0875 80.6467C46.2262 80.2844 46.3444 79.9604 46.4467 79.6642V79.6638C46.4663 79.6079 46.4851 79.5535 46.5033 79.4998C46.5033 79.4994 46.5033 79.4994 46.5036 79.4991C46.7591 78.7436 46.9136 78.1634 47.0574 77.5541C47.1184 77.2976 47.0311 77.0284 46.8307 76.8568L46.0191 76.1602C45.8375 76.0876 45.5988 75.4965 45.4139 74.9564C45.2499 74.4766 45.1286 74.0369 45.1286 74.0369C45.1625 74.3656 45.1742 74.6978 45.1742 74.9958C45.1745 75.5976 45.1286 76.0575 45.1286 76.0575L43.9299 76.0918C44.0532 75.8696 44.0745 75.5274 44.0508 75.1801C44.0094 74.5644 43.8272 73.9342 43.8272 73.9342C43.7573 74.5123 43.6713 74.9404 43.5826 75.2572C43.3241 76.1791 43.0395 76.1603 43.0395 76.1603C43.1724 75.8648 43.2624 75.574 43.3217 75.3C43.5374 74.3027 43.3477 73.5232 43.3477 73.5232L42.5737 75.4226L42.2175 76.2973C41.3955 77.5987 41.8408 78.9001 41.8408 78.9001C41.9377 79.1799 42.0155 79.4416 42.0771 79.6854C42.0871 79.7241 42.0963 79.7625 42.1056 79.8001C42.1056 79.8005 42.1056 79.8005 42.1056 79.8008C42.198 80.1913 42.2487 80.5351 42.2703 80.8344C42.3566 82.0338 41.9778 82.5304 41.9778 82.5304C41.8682 82.693 41.7449 82.8478 41.6113 82.9948L41.6109 82.9952C40.2828 84.4548 37.9365 85.1332 37.9365 85.1332C38.3475 84.5853 38.3132 82.6331 38.3132 82.6331C37.594 86.0237 36.498 85.7839 36.498 85.7839C37.1546 85.587 37.2512 84.4551 37.5084 83.3695C37.6817 82.6379 38.2711 81.5091 38.5221 80.8005C38.7776 80.0793 39.0681 79.1915 39.3177 78.408C39.6578 77.3418 39.9229 76.4685 39.9229 76.4685C39.9705 76.2459 40.0205 76.0342 40.0725 75.8332C41.225 71.3895 43.4504 72.0163 43.4504 72.0163C45.6293 71.3299 46.956 72.7502 47.7598 74.5715C48.8006 76.9305 48.9644 79.9618 48.9644 79.9618C49.0181 80.8197 49.5007 81.8642 49.95 82.667C50.4206 83.5071 50.7521 84.4188 50.9127 85.3685C50.9497 85.5874 50.9907 85.796 51.0349 85.9943C51.5863 86.6491 52.2432 87.2731 52.8439 87.4395C52.874 87.4481 52.9042 87.4553 52.934 87.4615C52.9055 87.457 52.875 87.4515 52.8428 87.4447C52.4562 87.3642 51.8195 87.1145 51.1222 86.3601C51.6305 88.3433 52.4233 89.1745 52.4233 89.1745C52.2178 89.3458 50.7623 88.13 50.7623 88.13C50.8876 88.4646 51.7726 89.1115 52.4428 89.5653C52.8706 89.8546 53.211 90.0649 53.211 90.0649Z" fill="black"/>
<path d="M53.1943 87.481C53.2168 87.4803 53.2286 87.479 53.2286 87.479C53.2173 87.4801 53.2057 87.4803 53.1943 87.481Z" fill="black"/>
<path d="M53.1942 87.4793C53.1487 87.4807 53.0587 87.4794 52.9336 87.4595C53.022 87.4772 53.1091 87.4842 53.1942 87.4793Z" fill="black"/>
<path d="M174.441 124.96C174.441 124.96 174.999 129.653 174.441 130.724L178.542 131.506L177.308 123.807L174.441 124.96Z" fill="#DB965F"/>
<path d="M174.581 133.695C174.581 133.695 171.219 134.553 168.644 133.864C168.26 133.761 168.02 133.365 168.104 132.965C168.206 132.479 168.632 131.896 170.009 131.665C170.009 131.665 173.71 130.009 174.74 128.692C174.74 128.692 176.872 129.794 178.144 128.939C178.144 128.939 179.111 129.658 179.269 131.075C179.384 132.105 178.663 133.036 177.667 133.16C176.622 133.29 175.236 133.488 174.581 133.695Z" fill="#040C2B"/>
<path d="M178.813 89.5378L176.193 107.051L177.785 125.332L176.965 125.461L173.605 125.99L170.465 108.357C170.144 106.558 169.997 104.73 170.025 102.9L170.262 87.4536L178.94 88.6888L178.813 89.5378Z" fill="#040C2B"/>
<path opacity="0.15" d="M176.192 107.049L177.785 125.329L176.964 125.459L174.026 107.465L173.447 89.5356H178.812L176.192 107.049Z" fill="black"/>
<path d="M198.564 110.196L203.632 111.651L202.771 115.062L197.776 112.613L198.564 110.196Z" fill="#DB965F"/>
<path d="M203.708 110.982C203.696 110.979 203.683 110.976 203.67 110.973C203.64 110.967 203.61 110.958 203.581 110.948C203.353 110.864 202.205 110.487 201.2 110.963C201.2 110.963 202.043 112.691 201.034 113.602C200.809 113.806 200.491 113.874 200.196 113.798C200.447 114.969 200.196 114.743 200.506 117.341C200.494 117.241 200.438 117.53 200.419 117.628C200.302 118.236 199.904 121.147 201.561 120.601C201.561 120.601 203.332 120.399 204.856 112.813C205.02 111.995 204.52 111.175 203.708 110.982Z" fill="#040C2B"/>
<path d="M182.302 104.703C182.302 104.703 184.369 93.6592 183.365 90.1158C183.365 90.1158 181.699 88.0255 178.159 88.0278L173.975 88.6984L175.458 105.016C175.631 106.923 176.972 108.521 178.819 109.024L198.306 114.329L199.275 110.146L182.302 104.703Z" fill="#040C2B"/>
<path d="M169.684 84.7453L169.867 84.2569L171.845 78.8343L170.261 78.5974L169.544 78.4899L168.078 78.2706L167.374 81.1483L167.199 81.8661L159.611 79.5434C159.611 79.5434 159.226 78.3688 158.016 77.1685C157.745 77.2359 157.625 77.5638 157.784 77.8005L158.251 78.4961C158.251 78.4961 156.341 77.0079 155.073 77.4775C155.073 77.4775 153.319 78.2604 154.061 79.8469C154.061 79.8469 154.292 81.4832 157.94 81.9613L168.516 85.3029C168.986 85.4512 169.489 85.2114 169.684 84.7453Z" fill="#DB965F"/>
<path d="M180.197 70.9884L180.179 74.301L175.257 75.1993L172.397 73.7395L173.634 72.1352L174.318 71.2485C174.455 71.0707 174.513 70.842 174.478 70.6178L173.881 66.8149L178.677 64.6626L178.273 67.6847L178.206 68.1811C178.061 69.7906 180.197 70.9884 180.197 70.9884Z" fill="#C9885B"/>
<path opacity="0.15" d="M178.677 64.6626L178.225 68.0875C176.544 71.11 174.417 71.8179 173.635 72.1352L174.318 71.2485C174.455 71.0707 174.513 70.842 174.478 70.6178L173.882 66.8149L178.677 64.6626Z" fill="black"/>
<path d="M179.365 65.0024L178.804 66.4433C178.192 67.3693 177.585 68.0807 177.023 68.6268C175.427 70.1774 174.19 70.3923 174.19 70.3923C173.66 70.4805 173.228 70.0787 172.88 69.4374C171.9 67.6294 171.584 63.9168 171.584 63.9168L177.701 63.1685L179.365 65.0024Z" fill="#DB965F"/>
<path d="M179.394 66.1263C179.325 68.4704 178.2 68.3158 178.2 68.3158L178.297 67.1913L178.713 66.4988C179.365 64.8519 178.207 65.039 178.207 65.039C177.266 65.3011 177.302 66.4988 177.302 66.4988H176.976C176.759 66.1619 176.687 65.0016 176.687 65.0016C174.394 62.2663 171.718 65.1174 171.718 65.1174C169.569 63.5383 171.323 62.4417 171.323 62.4417C171.016 60.1608 173.253 60.5994 173.253 60.5994C173.253 60.5994 174.745 59.2835 175.622 60.1169C175.622 60.1169 176.982 60.0292 177.464 61.4328C177.464 61.4328 178.692 61.1696 179.087 62.4417C179.087 62.4417 179.121 62.4835 179.176 62.5614C179.766 63.4077 179.899 64.488 179.557 65.4611C179.471 65.7065 179.399 65.9571 179.394 66.1263Z" fill="black"/>
<path d="M170.57 82.2585L169.564 81.8976L167.482 81.1505L167.023 80.9858C168.168 74.7652 169.279 73.5004 169.787 73.2665C169.97 73.1823 170.075 73.2317 170.075 73.2317L170.369 78.5996L170.57 82.2585Z" fill="white"/>
<path opacity="0.15" d="M171.953 79.0203L169.974 84.3317L169.563 82.0186L169.651 78.6829L169.786 73.5643C169.97 73.4818 170.074 73.5302 170.074 73.5302L170.369 78.7882L171.953 79.0203Z" fill="black"/>
<path d="M184.503 80.0845L184.443 83.1721L184.417 84.5433L184.369 86.9637L184.35 87.9532L184.342 88.3396L184.323 89.3243L184.309 90.0393L184.314 90.3586L184.334 91.7346L184.351 92.9264L169.218 92.3124L169.269 91.6715L169.38 90.2955L169.458 89.3244L169.556 88.2774L169.586 87.9532L169.684 86.9018L169.904 84.5433L170.021 83.2949C170.024 83.2541 170.027 83.2129 170.025 83.1721V83.1646L169.914 79.7621L169.869 78.3909L169.782 75.7266L169.737 74.3554L169.712 73.5795C169.706 73.3943 169.809 73.2251 169.973 73.1518L173.099 71.7565L173.225 71.7003L174.362 71.1924C173.924 72.3416 174.361 72.9649 174.906 73.3005C175.16 73.4571 175.442 73.5475 175.728 73.5746C175.796 73.5808 175.864 73.5838 175.933 73.5825C176.221 73.5799 176.51 73.5128 176.777 73.3838C180.104 71.7858 179.381 70.4028 179.381 70.4028L180.397 71.0902L180.567 71.2046L184.178 73.6474L184.214 74.3554L184.284 75.7266L184.42 78.3909L184.452 79.0388L184.489 79.7621L184.502 80.0117C184.503 80.0362 184.504 80.0603 184.503 80.0845Z" fill="white"/>
<path d="M184.284 75.7291H169.782L169.737 74.3579H184.214L184.284 75.7291Z" fill="#E3E9F7"/>
<path d="M184.49 79.7623H169.914L169.869 78.3911H184.42L184.453 79.039L184.49 79.7623Z" fill="#E3E9F7"/>
<path d="M184.443 83.1724L184.417 84.5436H169.904L170.021 83.2952C170.024 83.2544 170.027 83.2132 170.025 83.1724H184.443Z" fill="#E3E9F7"/>
<path d="M184.369 86.9647L184.35 87.9542L184.342 88.3407L169.556 88.2784L169.586 87.9542L169.684 86.9028L184.369 86.9647Z" fill="#E3E9F7"/>
<path d="M184.334 91.7346L169.27 91.6714L169.38 90.2954L184.314 90.3585L184.334 91.7346Z" fill="#E3E9F7"/>
<path opacity="0.15" d="M184.504 80.049L184.309 90.0404L183.672 90.0804L182.218 78.8774L184.453 79.0395L184.504 80.049Z" fill="black"/>
<path d="M168.322 72.4419C174.519 74.4317 180.073 83.0729 180.937 89.3687C181.964 96.8583 176.462 101.833 168.971 102.86C161.481 103.888 154.84 100.579 153.813 93.0898C152.949 86.7941 155.973 76.9761 161.403 73.3912L161.405 73.3909L168.32 72.4422L168.322 72.4419Z" fill="#F6471E"/>
<path d="M169.997 65.7884L168.583 71.4058L160.862 72.4651L158.027 67.6146C157.934 67.2385 158.346 66.8655 158.787 66.7802C159.229 66.6948 159.675 66.8156 160.097 66.9315C160.518 67.0474 160.968 67.1615 161.406 67.0662C162.35 66.8623 162.968 65.7598 163.919 65.8755C164.493 65.9456 164.873 66.4624 165.448 66.5282C166.165 66.6119 166.723 65.9893 167.351 65.6508C168.169 65.2077 169.292 65.2666 169.997 65.7884Z" fill="#F6471E"/>
<path d="M169.997 65.7884L168.583 71.4058L160.862 72.4651L158.027 67.6146C157.934 67.2385 158.346 66.8655 158.787 66.7802C159.229 66.6948 159.675 66.8156 160.097 66.9315C160.518 67.0474 160.968 67.1615 161.406 67.0662C162.35 66.8623 162.968 65.7598 163.919 65.8755C164.493 65.9456 164.873 66.4624 165.448 66.5282C166.165 66.6119 166.723 65.9893 167.351 65.6508C168.169 65.2077 169.292 65.2666 169.997 65.7884Z" fill="#E53C23"/>
<path d="M168.583 71.4048L168.322 72.4418L168.32 72.442L161.405 73.3906L161.403 73.3909L160.862 72.464L168.583 71.4048Z" fill="#829CF8"/>
<path d="M170.415 92.3249C170.166 92.8398 169.756 93.2806 169.184 93.6475C168.612 94.0145 167.899 94.2566 167.044 94.3738L167.208 95.566L166.508 95.6621L166.34 94.4401C165.204 94.495 164.243 94.2825 163.459 93.8029C162.674 93.3238 162.18 92.5968 161.976 91.6229L165.09 91.1957C165.206 91.7467 165.518 92.0681 166.027 92.1602L165.761 90.223C165.628 90.2109 165.509 90.1919 165.404 90.1656C164.64 90.0579 164.003 89.9304 163.492 89.7828C162.981 89.6354 162.521 89.367 162.114 88.9774C161.706 88.5881 161.453 88.0356 161.355 87.3203C161.268 86.6847 161.366 86.1119 161.651 85.6022C161.935 85.0925 162.358 84.6727 162.92 84.3425C163.482 84.0125 164.129 83.782 164.86 83.6512L164.694 82.4442L165.394 82.3481L165.562 83.57C166.735 83.4902 167.696 83.6848 168.443 84.154C169.191 84.6234 169.665 85.3352 169.867 86.2891L166.723 86.7204C166.594 86.2221 166.311 85.932 165.875 85.8501L166.137 87.7575C166.386 87.8044 166.572 87.8343 166.696 87.8477C167.462 87.9755 168.094 88.1167 168.591 88.2709C169.087 88.4255 169.534 88.6933 169.931 89.074C170.327 89.4549 170.572 89.988 170.666 90.6734C170.747 91.2598 170.663 91.8103 170.415 92.3249ZM165.399 87.5853L165.166 85.8865C164.646 86.0086 164.418 86.298 164.481 86.7549C164.533 87.1326 164.839 87.4094 165.399 87.5853ZM167.375 91.8007C167.522 91.6235 167.579 91.4108 167.545 91.1624C167.516 90.9537 167.412 90.7858 167.233 90.6586C167.054 90.5315 166.807 90.4338 166.494 90.3652L166.74 92.1534C167.015 92.0956 167.227 91.978 167.375 91.8007Z" fill="#F8F5ED"/>
<path d="M170.335 73.3306C171.699 75.0194 172.872 76.9755 173.769 79.1543C177.754 88.8329 174.805 99.2227 167.182 102.361C166.507 102.639 165.817 102.849 165.118 102.998C166.359 103.085 167.651 103.042 168.971 102.861C176.462 101.833 181.964 96.8583 180.937 89.3687C180.168 83.7644 175.682 76.3059 170.335 73.3306Z" fill="#E53C23"/>
<path d="M166.109 72.2447L166.091 79.7298L167.629 79.5187L166.622 72.1743L166.109 72.2447Z" fill="#829CF8"/>
<path d="M166.454 72.1984L168.154 77.8158L169.438 77.6397L166.829 72.147L166.454 72.1984Z" fill="#829CF8"/>
<path d="M166.62 72.8659C167.034 72.8092 167.331 72.4849 167.284 72.1415C167.237 71.7981 166.863 71.5657 166.45 71.6224C166.036 71.6791 165.739 72.0035 165.786 72.3469C165.834 72.6903 166.207 72.9226 166.62 72.8659Z" fill="#6275BA"/>
<path d="M160.862 72.4647L161.27 72.4087L161.405 73.3913L161.057 73.4391C161.024 73.4436 160.993 73.4204 160.989 73.3872L160.862 72.4647Z" fill="#829CF8"/>
<path d="M168.584 71.4048L168.176 71.4608L168.311 72.4434L168.659 72.3957C168.692 72.3912 168.715 72.3606 168.71 72.3273L168.584 71.4048Z" fill="#829CF8"/>
<path d="M186.169 78.4771L182.84 80.386L184.903 85.4017L180.198 93.8235C180.198 93.8235 179.003 93.9358 177.592 94.8716C177.592 95.1597 177.872 95.3579 178.131 95.2534L178.895 94.9464C178.895 94.9464 177.049 96.5185 177.194 97.9034C177.194 97.9034 177.519 99.8498 179.184 99.4755C179.184 99.4755 180.777 99.6252 182.08 96.0693L187.544 86.3135C187.811 85.8372 187.885 85.2713 187.751 84.7387L186.169 78.4771Z" fill="#DB965F"/>
<path d="M183.989 73.6314C183.989 73.6314 186.206 73.5727 187.002 81.4331L183.166 82.8929C183.166 82.8929 180.216 74.1392 183.989 73.6314Z" fill="white"/>
<path opacity="0.15" d="M176.285 74.0322C175.997 73.9645 175.949 73.6201 175.946 73.5942C175.996 73.7967 176.141 73.9382 176.285 74.0322Z" fill="black"/>
<path d="M177.289 66.4773L177.071 68.2335C177.039 68.4945 176.914 68.7356 176.718 68.911C175.272 70.2037 174.19 70.3917 174.19 70.3917C173.659 70.4799 173.228 70.078 172.88 69.4368C175.071 69.2342 176.942 66.3071 176.942 66.3071L177.289 66.4773Z" fill="black"/>
<path d="M103.051 92.1567C103.051 92.1567 98.5357 93.079 95.5959 96.6239C92.6562 100.169 86.8451 112.055 96.1921 114.823L100.827 109.723C100.827 109.723 99.4436 108.555 100.178 104.621C100.913 100.688 104.237 94.8762 103.051 92.1567Z" fill="white"/>
<path d="M111.311 92.1567C111.311 92.1567 115.954 93.079 118.893 96.6239C121.833 100.169 127.644 112.055 118.297 114.823L113.663 109.723C113.663 109.723 115.046 108.555 114.311 104.621C113.576 100.688 110.125 94.8762 111.311 92.1567Z" fill="white"/>
<path d="M118.251 114.761C111.327 117.863 103.128 117.907 96.1929 114.823C95.889 111.315 97.0938 110.184 97.6758 106.275C98.9395 97.7878 102.273 92.4267 102.273 92.4267C104.977 91.3518 109.545 91.2278 112.164 92.4958C112.164 92.4958 115.964 98.1311 116.455 105.857C116.695 109.637 118.251 111.362 118.251 114.761Z" fill="white"/>
<path d="M104.572 91.8092C104.572 91.8092 104.94 94.1512 107.246 94.081C109.551 94.0108 109.828 91.7875 109.828 91.7875C109.828 91.7875 107.49 91.0484 104.572 91.8092Z" fill="#E3E9F7"/>
<path d="M107.222 93.1928C106.303 93.1928 105.558 92.4476 105.558 91.5285V89.2622H108.886V91.5285C108.886 92.4478 108.141 93.1928 107.222 93.1928Z" fill="#F99370"/>
<path d="M113.011 84.6616C112.591 86.6022 110.222 86.1012 110.623 84.1568C111.043 82.2163 113.412 82.7172 113.011 84.6616Z" fill="#F99370"/>
<path d="M101.433 84.6616C101.853 86.6022 104.223 86.1012 103.821 84.1568C103.401 82.2163 101.032 82.7172 101.433 84.6616Z" fill="#F99370"/>
<path d="M112.093 86.7603C111.822 93.258 101.402 92.3055 102.43 85.7804C102.572 84.4863 103.035 83.6258 103.253 81.5629C103.756 76.7883 110.541 76.5341 111.15 81.5272C111.39 83.4969 112.108 84.9489 112.093 86.7603Z" fill="#F99370"/>
<path d="M106.996 85.8677C106.523 85.8621 105.787 85.5431 106.385 85.1225C106.874 84.8579 107.233 83.846 107.236 83.8358C107.276 83.7159 107.465 83.7806 107.421 83.9004C107.405 83.945 107.033 84.9944 106.479 85.2947C106.095 85.5293 106.894 85.7566 107.223 85.6405C107.275 85.624 107.33 85.6523 107.346 85.7038C107.374 85.8793 107.118 85.8546 106.996 85.8677Z" fill="#C16256"/>
<path d="M104.03 81.2589C106.374 82.3476 109.064 78.8027 110.499 80.4281L110.675 79.4351L107.942 78.1528L103.579 79.6714L104.03 81.2589Z" fill="#E57D61"/>
<path d="M111.438 83.0306C111.438 83.0306 110.621 81.4631 110.5 80.4286C110.38 79.394 108.991 79.2137 107.85 80.0236C106.708 80.8334 105.284 81.2016 103.787 80.6494C102.291 80.0971 101.322 77.8278 102.845 76.4891C104.352 75.1638 105.92 76.1965 107.277 76.7101C109.027 77.3728 113.424 76.036 111.438 83.0306Z" fill="#8C4225"/>
<path d="M103.054 82.958C103.054 82.958 104.278 81.5717 104.352 79.7308L103.041 79.2153C103.041 79.2153 102.507 81.0064 103.054 82.958Z" fill="#8C4225"/>
<path d="M112.515 85.0506C112.452 85.0514 112.404 84.9874 112.424 84.9272C112.758 83.9738 112.411 83.4865 111.658 83.7751C111.544 83.8226 111.472 83.6405 111.589 83.5972C112.384 83.2717 113.038 83.776 112.606 84.9831C112.594 85.0241 112.556 85.0506 112.515 85.0506Z" fill="#C16256"/>
<path d="M111.733 84.8183C111.437 84.7946 111.892 83.9773 112.617 83.9283C112.669 83.9257 112.672 83.9679 112.676 84.0205C112.679 84.0732 112.682 84.1155 112.63 84.119C111.889 84.1956 111.909 84.7935 111.733 84.8183Z" fill="#C16256"/>
<path d="M99.9577 97.4126C99.9577 97.4126 97.9165 100.412 97.0518 104.85H97.9112C97.9112 104.85 98.5937 101.622 99.9577 97.4126Z" fill="#E3E9F7"/>
<path d="M114.583 97.4126C114.583 97.4126 116.608 100.325 117.626 104.85H116.372C116.372 104.85 116.319 102.703 114.583 97.4126Z" fill="#E3E9F7"/>
<path d="M101.989 85.0506C101.948 85.0506 101.911 85.0241 101.898 84.983C101.466 83.7754 102.122 83.2719 102.916 83.5972C103.031 83.641 102.961 83.8216 102.846 83.7751C102.165 83.4955 101.72 83.9192 102.081 84.9272C102.1 84.9872 102.052 85.0515 101.989 85.0506Z" fill="#C16256"/>
<path d="M102.882 84.9165C102.709 84.8936 102.613 84.1942 101.876 84.1191C101.823 84.1156 101.835 84.0734 101.839 84.0206C101.842 83.9679 101.837 83.9252 101.888 83.9284C102.613 83.9778 103.178 84.8918 102.882 84.9165Z" fill="#C16256"/>
<path d="M112.093 85.8423C111.773 83.8757 111.458 83.0577 111.016 81.8306C111.184 83.2551 112.875 88.305 109.868 86.7036C108.009 85.7157 106.016 86.1579 104.352 86.9465C103.568 87.24 102.762 87.1862 102.865 86.0167C102.944 85.1234 103.031 83.7359 103.359 82.1553C102.965 82.7696 102.799 84.436 102.43 85.7794C101.327 93.0764 112.905 93.2345 112.093 85.8423ZM108.759 89.7072C107.798 89.7354 107.954 88.419 107.228 88.4374C106.645 88.4522 106.738 90.4252 104.916 89.652C104.041 89.289 103.949 88.0858 104.734 87.5563C105.413 87.0973 106.328 86.7433 107.24 86.7072C108.103 86.6729 108.962 86.8928 109.652 87.2614C111.003 88.0766 109.993 89.6646 108.759 89.7072Z" fill="#8C4225"/>
<path d="M107.013 87.6268C106.74 87.6268 106.545 87.5879 106.527 87.5842C106.479 87.5742 106.448 87.527 106.458 87.4786C106.468 87.4302 106.515 87.3989 106.564 87.4091C106.573 87.411 107.504 87.5956 108.157 87.1228C108.197 87.0941 108.253 87.1029 108.282 87.1429C108.311 87.1829 108.302 87.2388 108.262 87.2678C107.856 87.5612 107.368 87.6268 107.013 87.6268Z" fill="#C16256"/>
<path d="M109.835 82.7758C109.825 82.7758 109.814 82.774 109.804 82.7703C109.009 82.4789 108.151 82.5286 108.142 82.529C108.093 82.5327 108.05 82.4947 108.047 82.4454C108.044 82.3962 108.081 82.3537 108.131 82.3506C108.167 82.3484 109.036 82.2982 109.866 82.6025C109.912 82.6194 109.936 82.6708 109.919 82.7172C109.906 82.7534 109.872 82.7758 109.835 82.7758Z" fill="#C16256"/>
<path d="M104.66 82.776C104.623 82.776 104.589 82.7535 104.576 82.7173C104.559 82.6709 104.583 82.6195 104.629 82.6025C105.459 82.2981 106.327 82.3484 106.364 82.3506C106.413 82.3537 106.451 82.3962 106.448 82.4454C106.445 82.4947 106.402 82.5323 106.353 82.5291C106.344 82.5285 105.484 82.4794 104.69 82.7704C104.68 82.7742 104.67 82.776 104.66 82.776Z" fill="#C16256"/>
<path d="M98.1371 127.77C98.1371 127.77 96.3188 129.712 95.2148 130.197C93.7344 130.847 90.157 131.926 89.425 132.15C87.426 132.763 87.6035 134.669 90.2508 134.399C93.609 134.225 98.398 134.039 100.646 131.847C103.665 130.222 100.957 125.812 98.1371 127.77Z" fill="#F99370"/>
<path d="M116.096 127.77C116.096 127.77 117.914 129.712 119.018 130.197C120.498 130.847 124.076 131.926 124.808 132.15C126.807 132.763 126.629 134.669 123.982 134.399C120.624 134.225 115.835 134.039 113.587 131.847C110.567 130.222 113.275 125.812 116.096 127.77Z" fill="#F99370"/>
<path d="M88.2617 114.081C88.2617 114.081 92.2389 113.871 95.9363 114.753C101.215 116.013 107.225 116.794 118.605 114.557C122.241 113.842 126.537 114.128 126.537 114.128C124.447 115.605 122.443 116.93 120.5 118.071C109.492 124.534 100.404 125.113 88.2617 114.081Z" fill="#23659B"/>
<path d="M95.9365 117.873H118.644V104.596C118.644 104.295 118.4 104.051 118.099 104.051H96.4809C96.1803 104.051 95.9365 104.295 95.9365 104.596V117.873Z" fill="#163260"/>
<path d="M114.759 133.209C63.8299 124.164 80.2492 98.7169 117.323 127.182C117.903 130.925 114.759 133.209 114.759 133.209Z" fill="#3A72AA"/>
<path d="M114.759 133.21C114.702 133.211 114.136 133.112 113.191 132.918C113.191 132.918 116.61 130.62 116.188 126.397C116.916 126.892 117.324 127.183 117.324 127.183C117.903 130.926 114.759 133.21 114.759 133.21Z" fill="#23659B"/>
<path d="M116.849 127.674L115.593 129.977L108.782 132.01C108.782 132.01 107.628 131.759 107.046 131.61L116.849 127.674Z" fill="#23659B"/>
<path d="M101.045 132.953C100.204 133.124 99.7033 133.212 99.6502 133.21C99.6502 133.21 96.5067 130.926 97.0859 127.183C133.726 98.9585 150.091 123.849 101.045 132.953Z" fill="#3A72AA"/>
<path d="M101.045 132.952C100.204 133.123 99.7033 133.211 99.6502 133.209C99.6502 133.209 96.5067 130.925 97.0859 127.182C97.0859 127.182 97.4907 126.832 98.2453 126.379C98.2453 126.379 98.0102 130.31 101.045 132.952Z" fill="#23659B"/>
<path d="M97.6926 127.224C97.6438 127.224 97.5951 127.203 97.5612 127.163C97.4998 127.09 97.509 126.982 97.5815 126.92C97.6376 126.873 103.246 122.148 107.799 119.639C107.883 119.593 107.987 119.623 108.033 119.707C108.079 119.79 108.049 119.894 107.966 119.94C103.441 122.433 97.8594 127.136 97.8035 127.183C97.7713 127.21 97.7318 127.224 97.6926 127.224Z" fill="#23659B"/>
<path d="M108.503 84.0334C108.439 83.9077 108.49 83.7542 108.615 83.6903C108.741 83.6265 108.894 83.6766 108.958 83.8023C109.022 83.9279 108.972 84.0815 108.846 84.1452C108.721 84.2091 108.567 84.1589 108.503 84.0334Z" fill="#C16256"/>
<path d="M105.445 84.0412C105.381 83.9156 105.431 83.762 105.557 83.6982C105.682 83.6343 105.836 83.6844 105.9 83.8101C105.963 83.9358 105.913 84.0893 105.788 84.1532C105.662 84.2169 105.509 84.1667 105.445 84.0412Z" fill="#C16256"/>
<path d="M87.8064 133.998C87.4261 132.643 88.216 131.236 89.5711 130.856L96.4272 129.379C96.4272 129.379 96.5255 131.5 98.2126 133.271L90.9487 135.762C89.5936 136.143 88.1868 135.353 87.8064 133.998Z" fill="#1D3F70"/>
<path d="M91.1544 134.888C91.1442 134.887 91.1339 134.886 91.1235 134.884C90.9927 134.858 90.9076 134.73 90.9337 134.599C91.2373 133.074 90.1193 132.071 90.0716 132.03C89.9715 131.942 89.9611 131.789 90.0489 131.689C90.1365 131.588 90.2887 131.578 90.3892 131.665C90.4457 131.714 91.7672 132.888 91.4078 134.694C91.3837 134.814 91.2738 134.896 91.1544 134.888Z" fill="#E8C0A6"/>
<path d="M92.9083 134.177C92.898 134.177 92.8878 134.175 92.8775 134.173C92.7467 134.147 92.6616 134.02 92.6877 133.889C92.9872 132.384 91.9911 131.647 91.9486 131.617C91.8406 131.539 91.8151 131.388 91.8924 131.28C91.9697 131.172 92.1197 131.146 92.2281 131.222C92.2812 131.26 93.5243 132.161 93.1616 133.983C93.1377 134.104 93.0278 134.186 92.9083 134.177Z" fill="#E8C0A6"/>
<path d="M94.7478 133.482C94.7401 133.481 94.7326 133.48 94.7249 133.479C94.5932 133.457 94.504 133.333 94.5257 133.201C94.768 131.726 93.9287 131.196 93.8929 131.174C93.7796 131.105 93.7423 130.957 93.8105 130.843C93.8788 130.729 94.0248 130.691 94.1394 130.758C94.187 130.786 95.3009 131.463 95.0027 133.28C94.9822 133.404 94.8708 133.49 94.7478 133.482Z" fill="#E8C0A6"/>
<path d="M126.157 134.101C126.562 132.753 125.799 131.332 124.451 130.926L117.665 129.262C117.665 129.262 117.752 131.537 116.032 133.275L122.982 135.807C124.33 136.212 125.751 135.448 126.157 134.101Z" fill="#1D3F70"/>
<path d="M122.792 134.925C122.802 134.924 122.812 134.923 122.823 134.921C122.954 134.897 123.041 134.772 123.018 134.64C122.743 133.109 123.879 132.128 123.928 132.087C124.029 132.001 124.043 131.849 123.957 131.747C123.871 131.645 123.719 131.631 123.617 131.717C123.56 131.765 122.216 132.914 122.542 134.726C122.564 134.847 122.672 134.931 122.792 134.925Z" fill="#E8C0A6"/>
<path d="M121.052 134.187C121.063 134.187 121.073 134.185 121.083 134.184C121.214 134.16 121.302 134.034 121.278 133.903C121.007 132.392 122.017 131.675 122.06 131.645C122.169 131.569 122.197 131.419 122.122 131.309C122.047 131.199 121.897 131.17 121.787 131.245C121.734 131.282 120.474 132.16 120.803 133.988C120.824 134.11 120.933 134.193 121.052 134.187Z" fill="#E8C0A6"/>
<path d="M119.226 133.452C119.233 133.452 119.241 133.451 119.249 133.45C119.381 133.431 119.472 133.308 119.453 133.176C119.238 131.696 120.087 131.182 120.123 131.161C120.238 131.094 120.278 130.946 120.212 130.831C120.146 130.716 120.001 130.675 119.885 130.741C119.837 130.768 118.71 131.424 118.975 133.245C118.993 133.37 119.103 133.458 119.226 133.452Z" fill="#E8C0A6"/>
<path d="M82.8697 63.5772L76.9407 61.9235C76.2822 61.7398 75.8973 61.0571 76.081 60.3986L77.5242 55.2244C77.7079 54.5659 78.3906 54.181 79.0491 54.3647L84.978 56.0184C85.6365 56.2021 86.0214 56.8848 85.8377 57.5433L84.3945 62.7175C84.2109 63.376 83.5282 63.7609 82.8697 63.5772Z" fill="#DEE4FC"/>
<g opacity="0.5">
<path d="M78.0724 58.403L77.5322 60.1978L79.1674 60.6899L79.7076 58.8951L78.0724 58.403Z" fill="white"/>
<path d="M81.9897 58.4985L80.3545 58.0063L79.515 60.7958L81.1501 61.2879L81.9897 58.4985Z" fill="#ACBCF8"/>
<path d="M84.3901 57.7465L82.7549 57.2544L81.5084 61.3961L83.1436 61.8882L84.3901 57.7465Z" fill="#829CF8"/>
</g>
<path d="M114.235 52.3613L108.08 52.4135C107.396 52.4193 106.838 51.8699 106.832 51.1862L106.786 45.8147C106.78 45.1311 107.33 44.5722 108.013 44.5664L114.168 44.5142C114.852 44.5084 115.411 45.0579 115.417 45.7415L115.462 51.113C115.468 51.7966 114.919 52.3555 114.235 52.3613Z" fill="#DEE4FC"/>
<path d="M111.04 51.3841C112.653 51.3841 113.961 50.0767 113.961 48.4638C113.961 46.8509 112.653 45.5435 111.04 45.5435C109.428 45.5435 108.12 46.8509 108.12 48.4638C108.12 50.0767 109.428 51.3841 111.04 51.3841Z" fill="#ACBCF8"/>
<path d="M111.041 51.0035C110.362 51.0035 109.724 50.7393 109.245 50.2597C108.765 49.78 108.501 49.1423 108.501 48.4639C108.501 47.7856 108.765 47.1478 109.245 46.6681C109.724 46.1885 110.362 45.9243 111.041 45.9243C111.719 45.9243 112.357 46.1885 112.836 46.6681C113.316 47.1478 113.58 47.7855 113.58 48.4639C113.58 49.1423 113.316 49.78 112.836 50.2597C112.357 50.7393 111.719 51.0035 111.041 51.0035Z" fill="white"/>
<path d="M111.041 50.6229C110.464 50.6229 109.922 50.3983 109.514 49.9906C109.106 49.5828 108.882 49.0407 108.882 48.464C108.882 47.8874 109.106 47.3453 109.514 46.9375C109.922 46.5297 110.464 46.3052 111.041 46.3052C111.617 46.3052 112.159 46.5297 112.567 46.9375C112.975 47.3453 113.2 47.8874 113.2 48.464C113.2 49.0407 112.975 49.5828 112.567 49.9906C112.159 50.3983 111.617 50.6229 111.041 50.6229Z" fill="#ACBCF8"/>
<path d="M111.041 50.2422C110.566 50.2422 110.119 50.0573 109.784 49.7214C109.448 49.3856 109.263 48.9391 109.263 48.4641C109.263 47.9892 109.448 47.5427 109.784 47.2068C110.119 46.871 110.566 46.686 111.041 46.686C111.516 46.686 111.962 46.871 112.298 47.2068C112.634 47.5427 112.819 47.9892 112.819 48.4642C112.819 48.9391 112.634 49.3856 112.298 49.7215C111.962 50.0573 111.516 50.2422 111.041 50.2422Z" fill="white"/>
<path d="M111.041 49.8616C110.668 49.8616 110.317 49.7162 110.053 49.4523C109.789 49.1884 109.644 48.8375 109.644 48.4643C109.644 48.091 109.789 47.7401 110.053 47.4762C110.317 47.2122 110.668 47.0669 111.041 47.0669C111.414 47.0669 111.765 47.2122 112.029 47.4762C112.293 47.7401 112.438 48.091 112.438 48.4643C112.438 48.8375 112.293 49.1884 112.029 49.4523C111.765 49.7162 111.414 49.8616 111.041 49.8616Z" fill="#ACBCF8"/>
<path d="M111.041 49.4809C110.769 49.4809 110.514 49.3752 110.322 49.1832C110.13 48.9912 110.024 48.7359 110.024 48.4643C110.024 48.1928 110.13 47.9375 110.322 47.7455C110.514 47.5535 110.769 47.4478 111.041 47.4478C111.313 47.4478 111.568 47.5535 111.76 47.7455C111.952 47.9375 112.058 48.1928 112.058 48.4644C112.058 48.736 111.952 48.9912 111.76 49.1832C111.568 49.3752 111.313 49.4809 111.041 49.4809Z" fill="white"/>
<path d="M111.04 49.1003C110.87 49.1003 110.711 49.0342 110.591 48.9141C110.47 48.794 110.404 48.6343 110.404 48.4645C110.404 48.2946 110.47 48.1349 110.591 48.0148C110.711 47.8948 110.87 47.8286 111.04 47.8286C111.21 47.8286 111.37 47.8948 111.49 48.0148C111.61 48.1349 111.676 48.2946 111.676 48.4645C111.676 48.6343 111.61 48.794 111.49 48.9141C111.37 49.0342 111.21 49.1003 111.04 49.1003Z" fill="#ACBCF8"/>
<path d="M111.04 48.7196C110.971 48.7196 110.909 48.6938 110.86 48.6449C110.811 48.596 110.785 48.5337 110.785 48.4646C110.785 48.3954 110.811 48.3331 110.86 48.2842C110.909 48.2353 110.971 48.2095 111.04 48.2095C111.109 48.2095 111.172 48.2353 111.221 48.2842C111.27 48.3331 111.295 48.3954 111.295 48.4646C111.295 48.5337 111.27 48.5961 111.221 48.645C111.172 48.6938 111.109 48.7196 111.04 48.7196Z" fill="white"/>
<path d="M111.204 48.3436L113.552 46.7954" stroke="#0F31AC" stroke-width="0.0616229" stroke-miterlimit="10"/>
<path d="M111.225 48.3291C111.244 48.2399 111.199 48.1167 111.153 48.0415C111.144 48.1891 111.105 48.3386 111.021 48.4635C111.168 48.4334 111.32 48.4647 111.461 48.5091C111.403 48.4344 111.32 48.3512 111.225 48.3291Z" fill="#0F31AC"/>
<path d="M113.801 46.895L113.787 46.8911L113.54 46.8416L113.986 46.5474L114.25 46.5992L113.801 46.895Z" fill="#0F31AC"/>
<path d="M114.012 46.2388L113.952 46.4958L113.506 46.79C113.535 46.7081 113.554 46.6219 113.564 46.5338L114.012 46.2388Z" fill="#0F31AC"/>
</svg>
