<svg preserveAspectRatio="none" width="100%" height="100%" overflow="visible" style="display: block;" viewBox="0 0 16 16" fill="none" xmlns="http://www.w3.org/2000/svg">
<g id="Icon - Funnel" clip-path="url(#clip0_0_25)">
<path id="Vector" d="M1 15C1 15 2.5 13 4 13M12 10.5C10.5 10.5 8 13 8 13C8 13 5.5621 13 4 13M4 13C4 9.09476 4 6.90524 4 3M8 13V3M4 3C2.5 3 1 1 1 1M12 5.5C10.5 5.5 8 3 8 3C8 3 5.5621 3 4 3M12 10.5C13.1716 10.5 15 10.5 15 10.5M12 10.5C12 8.54738 12 7.45262 12 5.5M12 5.5C13.1716 5.5 15 5.5 15 5.5" stroke="var(--stroke-0, #999999)" stroke-width="1.5" stroke-linecap="round" stroke-linejoin="round"/>
</g>
<defs>
<clipPath id="clip0_0_25">
<rect width="16" height="16" fill="white"/>
</clipPath>
</defs>
</svg>
