<svg preserveAspectRatio="none" width="100%" height="100%" overflow="visible" style="display: block;" viewBox="0 0 16 16" fill="none" xmlns="http://www.w3.org/2000/svg">
<g id="Icon - Cookie" clip-path="url(#clip0_0_11)">
<path id="Vector" d="M5.55 5.55V5.557M10.8 10.45V10.457M8 8V8.007M7.3 11.5V11.507M4.5 9.4V9.407M8 1C6.61553 1 5.26215 1.41054 4.11101 2.17971C2.95987 2.94888 2.06266 4.04213 1.53285 5.32121C1.00303 6.6003 0.86441 8.00776 1.13451 9.36563C1.4046 10.7235 2.07129 11.9708 3.05026 12.9497C4.02922 13.9287 5.2765 14.5954 6.63437 14.8655C7.99224 15.1356 9.3997 14.997 10.6788 14.4672C11.9579 13.9373 13.0511 13.0401 13.8203 11.889C14.5895 10.7378 15 9.38447 15 8C14.5135 8.1498 13.9954 8.16414 13.5013 8.04149C13.0073 7.91884 12.5561 7.66383 12.1961 7.30388C11.8362 6.94394 11.5812 6.49269 11.4585 5.99865C11.3359 5.50462 11.3502 4.98649 11.5 4.5C11.0135 4.6498 10.4954 4.66414 10.0013 4.54149C9.50731 4.41884 9.05606 4.16383 8.69612 3.80389C8.33617 3.44394 8.08116 2.99269 7.95851 2.49865C7.83586 2.00462 7.8502 1.48649 8 1Z" stroke="var(--stroke-0, #999999)" stroke-width="1.5" stroke-linecap="round" stroke-linejoin="round"/>
</g>
<defs>
<clipPath id="clip0_0_11">
<rect width="16" height="16" fill="white"/>
</clipPath>
</defs>
</svg>
