<svg preserveAspectRatio="none" width="100%" height="100%" overflow="visible" style="display: block;" viewBox="0 0 16 16" fill="none" xmlns="http://www.w3.org/2000/svg">
<g id="Icon" clip-path="url(#clip0_0_27)">
<path id="Vector" d="M8 4.5V3.72222M8 11.5V12.2778M9.68428 5.66667C9.34812 5.20171 8.71976 4.88889 8 4.88889H7.78393C6.82937 4.88889 6.05556 5.50795 6.05556 6.27161V6.33097C6.05556 6.8772 6.44132 7.37653 7.05204 7.62083L8.94796 8.37917C9.55867 8.62347 9.94444 9.1228 9.94444 9.66903C9.94444 10.4655 9.13742 11.1111 8.14187 11.1111H8C7.28024 11.1111 6.65188 10.7983 6.31569 10.3333M15 8C15 11.866 11.866 15 8 15C4.13401 15 1 11.866 1 8C1 4.13401 4.13401 1 8 1C11.866 1 15 4.13401 15 8Z" stroke="var(--stroke-0, #999999)" stroke-width="1.5" stroke-linecap="round" stroke-linejoin="round"/>
</g>
<defs>
<clipPath id="clip0_0_27">
<rect width="16" height="16" fill="white"/>
</clipPath>
</defs>
</svg>
