<svg preserveAspectRatio="none" width="100%" height="100%" overflow="visible" style="display: block;" viewBox="0 0 16 16" fill="none" xmlns="http://www.w3.org/2000/svg">
<g id="Icon - Identified" clip-path="url(#clip0_0_6)">
<path id="Vector" d="M6.70312 1.42297C7.41906 0.707007 8.57997 0.707007 9.2959 1.42297L10.1133 2.23938C10.2696 2.39548 10.4813 2.48352 10.7021 2.48352H11.6836C12.6959 2.48376 13.5165 3.30421 13.5166 4.31653V5.29797C13.5167 5.51888 13.6045 5.73063 13.7607 5.88684L14.5771 6.70325C15.2931 7.41914 15.293 8.58001 14.5771 9.29602L13.7607 10.1134C13.6045 10.2697 13.5166 10.4813 13.5166 10.7023V11.6837C13.5164 12.6959 12.6958 13.5165 11.6836 13.5167H10.7021C10.4812 13.5167 10.2696 13.6046 10.1133 13.7609L9.2959 14.5773C8.57996 15.2931 7.41904 15.2932 6.70312 14.5773L5.88672 13.7609C5.73051 13.6046 5.51875 13.5168 5.29785 13.5167H4.31641C3.30406 13.5167 2.48363 12.696 2.4834 11.6837V10.7023C2.4834 10.4813 2.39536 10.2696 2.23926 10.1134L1.42285 9.29602C0.706892 8.58002 0.706892 7.41918 1.42285 6.70325L2.23926 5.88684C2.39538 5.73064 2.48332 5.51882 2.4834 5.29797V4.31653C2.48346 3.30409 3.30396 2.48356 4.31641 2.48352H5.29785C5.5187 2.48344 5.73052 2.39552 5.88672 2.23938L6.70312 1.42297Z" stroke="var(--stroke-0, #999999)" stroke-width="1.5" stroke-linejoin="round"/>
<path id="Vector_2" d="M5.5 8L7.1875 9.75L10.5 5.75" stroke="var(--stroke-0, #999999)" stroke-width="1.5" stroke-linecap="round" stroke-linejoin="round"/>
</g>
<defs>
<clipPath id="clip0_0_6">
<rect width="16" height="16" fill="white"/>
</clipPath>
</defs>
</svg>
