<svg preserveAspectRatio="none" width="100%" height="100%" overflow="visible" style="display: block;" viewBox="0 0 16 16" fill="none" xmlns="http://www.w3.org/2000/svg">
<g id="Icon" clip-path="url(#clip0_0_16)">
<path id="Vector" d="M8 15C11.866 15 15 11.866 15 8C15 4.13401 11.866 1 8 1M8 15C4.13401 15 1 11.866 1 8C1 4.13401 4.13401 1 8 1M8 15C6.22373 15 4.78378 11.866 4.78378 8C4.78378 4.13401 6.22373 1 8 1M8 15C9.77626 15 11.2162 11.866 11.2162 8C11.2162 4.13401 9.77626 1 8 1M14.8108 8H1.18919" stroke="var(--stroke-0, #999999)" stroke-width="1.5" stroke-linecap="square"/>
</g>
<defs>
<clipPath id="clip0_0_16">
<rect width="16" height="16" fill="white"/>
</clipPath>
</defs>
</svg>
