<svg preserveAspectRatio="none" width="100%" height="100%" overflow="visible" style="display: block;" viewBox="0 0 34 33" fill="none" xmlns="http://www.w3.org/2000/svg">
<g id="lightforth-logo-2.svg" clip-path="url(#clip0_0_4)">
<path id="Vector" d="M18.1085 1.5836L13.3351 12.8388C13.2314 13.0833 13.2363 13.3602 13.3484 13.6008L15.0923 17.3426C15.3819 17.9641 14.9283 18.676 14.2427 18.676H0.939232C0.107089 18.676 -0.312452 17.6724 0.272101 17.0801L16.5784 0.559152C17.3044 -0.176433 18.512 0.632099 18.1085 1.5836V1.5836" fill="var(--fill-0, #21A0FC)"/>
<path id="Vector_2" d="M32.858 14.0372L15.4065 31.9814C14.6579 32.7512 13.413 31.862 13.8984 30.9042L20.1931 18.4839C20.3232 18.2272 20.3281 17.925 20.2066 17.6642L18.4706 13.9394C18.1832 13.3225 18.6281 12.6146 19.3086 12.6061L32.1744 12.4464C33.0087 12.436 33.4397 13.439 32.858 14.0372V14.0372" fill="var(--fill-0, #134ABE)"/>
</g>
<defs>
<clipPath id="clip0_0_4">
<rect width="34" height="33" fill="white"/>
</clipPath>
</defs>
</svg>
